<?xml version="1.0" encoding="UTF-8"?>
<!DOCTYPE svg PUBLIC "-//W3C//DTD SVG 1.1//EN" "http://www.w3.org/Graphics/SVG/1.1/DTD/svg11.dtd">
<svg xmlns="http://www.w3.org/2000/svg" version="1.1" width="206px" height="206px" style="shape-rendering:geometricPrecision; text-rendering:geometricPrecision; image-rendering:optimizeQuality; fill-rule:evenodd; clip-rule:evenodd" xmlns:xlink="http://www.w3.org/1999/xlink">
<g><path style="opacity:0.978" fill="#fefffe" d="M 89.5,2.5 C 124.895,-0.890366 152.729,11.7763 173,40.5C 185.649,61.7359 188.983,84.4026 183,108.5C 173.761,137.406 154.761,156.739 126,166.5C 119.667,177.833 113.333,189.167 107,200.5C 104,203.167 101,203.167 98,200.5C 91.6266,188.919 85.1266,177.419 78.5,166C 45.7686,154.937 26.2686,132.437 20,98.5C 16.3166,53.6687 35.1499,22.8354 76.5,6C 80.9989,4.96098 85.3323,3.79432 89.5,2.5 Z M 100.5,34.5 C 101.873,34.3433 103.207,34.51 104.5,35C 120.667,51.1667 136.833,67.3333 153,83.5C 153.667,85.1667 153.667,86.8333 153,88.5C 137.167,104.333 121.333,120.167 105.5,136C 103.5,136.667 101.5,136.667 99.5,136C 84,120.5 68.5,105 53,89.5C 51.6986,87.6354 51.3653,85.6354 52,83.5C 68.3685,67.2986 84.5351,50.9652 100.5,34.5 Z"/></g>
</svg>
