<svg width="40" height="40" viewBox="0 0 40 40" fill="none" xmlns="http://www.w3.org/2000/svg">
<path d="M39.8164 10.8034C33.2434 7.83924 27.8116 15.1829 20.831 9.23981C13.3317 2.85205 6.26953 6.6684 6.26953 6.6684L11.2049 21.9116C14.9768 18.0434 25.0401 24.8165 31.213 17.1689C35.0664 12.4189 38.0157 11.4333 39.6978 11.374C39.767 11.3754 39.8345 11.3526 39.8886 11.3095C39.9428 11.2664 39.9801 11.2057 39.9942 11.138C40.0082 11.0702 39.9982 10.9997 39.9657 10.9386C39.9333 10.8775 39.8804 10.8297 39.8164 10.8034Z" fill="white"/>
<path d="M4.26836 4.54152C4.26977 4.12986 4.15209 3.72658 3.9295 3.38028C3.70692 3.03398 3.38895 2.75944 3.01388 2.58976C2.63881 2.42008 2.22267 2.36249 1.81561 2.42394C1.40856 2.48539 1.02797 2.66325 0.719702 2.93609C0.411439 3.20893 0.188649 3.56511 0.0782128 3.96168C-0.0322236 4.35826 -0.0255706 4.77832 0.0972997 5.17122C0.22017 5.56412 0.454019 5.9131 0.770721 6.17609C1.08742 6.43909 1.47345 6.60489 1.88224 6.65349L11.8937 37.5993C11.9667 37.8232 12.1254 38.009 12.3352 38.1159C12.5449 38.2229 12.7886 38.2423 13.0127 38.1699C13.2367 38.0968 13.423 37.9384 13.5312 37.729C13.6394 37.5196 13.6607 37.276 13.5907 37.0509L3.57178 6.11252C3.79115 5.91382 3.96647 5.67137 4.08645 5.40079C4.20642 5.13021 4.26839 4.83751 4.26836 4.54152Z" fill="white"/>
</svg>
