<svg width="40" height="40" viewBox="0 0 40 40" fill="none" xmlns="http://www.w3.org/2000/svg">
<path d="M39.4208 21.4875L27.7217 33.1866C26.9431 33.9586 25.6894 33.9586 24.9174 33.1866L15.6531 23.9223H24.0992L23.5977 26.7728C23.5449 27.0698 23.6175 27.2215 23.7824 27.2215C23.8814 27.2215 24.0134 27.1622 24.1718 27.0302L31.6148 20.7022C32.0108 20.3591 32.1097 19.8048 31.8326 19.4683L26.6198 13.1404C26.5076 13.0084 26.3954 12.9424 26.2965 12.9424C26.1381 12.9424 26.0061 13.1008 25.9533 13.3977L25.4453 16.2813H15.6201L24.9174 6.98399C25.6894 6.20537 26.9431 6.20537 27.7217 6.98399L39.4208 18.6831C40.1929 19.4551 40.1929 20.7088 39.4208 21.4875Z" fill="white"/>
<path d="M4.05312 21.6854L10.3745 28.0068L9.72122 28.6534C9.27252 29.1021 8.55328 29.1021 8.10459 28.6534L0.331574 20.887C-0.110525 20.4383 -0.110525 19.7191 0.331574 19.2704L8.10459 11.4973C8.55328 11.0552 9.27252 11.0552 9.72122 11.4973L10.3745 12.1506L4.05312 18.4719C3.16232 19.3627 3.16232 20.7946 4.05312 21.6854Z" fill="white"/>
<path d="M10.7109 21.8966L18.7215 29.9138L17.6987 30.9365C17.25 31.3852 16.5176 31.3852 16.0623 30.9365L6.02598 20.9002C5.57728 20.4515 5.57728 19.7191 6.02598 19.2638L16.0623 9.22092C16.511 8.77223 17.2434 8.77223 17.6987 9.22092L18.7281 10.2503L10.7109 18.2674C9.70133 19.2704 9.70133 20.9002 10.7109 21.9032V21.8966Z" fill="white"/>
</svg>
