<svg width="40" height="40" viewBox="0 0 40 40" fill="none" xmlns="http://www.w3.org/2000/svg">
<path d="M27.9658 25.9815V28.9782C27.9667 29.1469 27.9175 29.312 27.8243 29.4525C27.7311 29.593 27.5981 29.7026 27.4424 29.7672C27.2867 29.8319 27.1152 29.8487 26.9499 29.8155C26.7845 29.7824 26.6328 29.7007 26.5141 29.581L19.5953 22.6537C19.4372 22.4946 19.3484 22.2794 19.3484 22.0552C19.3484 21.8309 19.4372 21.6157 19.5953 21.4567L26.5141 14.5293C26.6328 14.4096 26.7845 14.328 26.9499 14.2948C27.1152 14.2616 27.2867 14.2784 27.4424 14.3431C27.5981 14.4078 27.7311 14.5173 27.8243 14.6578C27.9175 14.7984 27.9667 14.9635 27.9658 15.1321V18.1288H38.4077L20.7583 0.470959C20.4532 0.169233 20.0414 0 19.6122 0C19.1831 0 18.7713 0.169233 18.4662 0.470959L4.88319 14.0539H11.2926V11.0232C11.2933 10.8564 11.3432 10.6934 11.436 10.5547C11.5288 10.416 11.6604 10.3077 11.8144 10.2434C11.9684 10.1791 12.1379 10.1616 12.3018 10.1931C12.4657 10.2246 12.6167 10.3037 12.7358 10.4205L19.6632 17.3393C19.7427 17.4182 19.8059 17.5121 19.849 17.6156C19.8921 17.719 19.9143 17.83 19.9143 17.9421C19.9143 18.0541 19.8921 18.1651 19.849 18.2685C19.8059 18.372 19.7427 18.4659 19.6632 18.5448L12.7358 25.4721C12.6167 25.5889 12.4657 25.6681 12.3018 25.6996C12.1379 25.7311 11.9684 25.7135 11.8144 25.6492C11.6604 25.5849 11.5288 25.4766 11.436 25.3379C11.3432 25.1992 11.2933 25.0363 11.2926 24.8694V21.8726H0.799805L18.4577 39.522C18.6076 39.6735 18.7862 39.7937 18.9829 39.8757C19.1796 39.9578 19.3906 40 19.6037 40C19.8169 40 20.0279 39.9578 20.2246 39.8757C20.4213 39.7937 20.5998 39.6735 20.7498 39.522L34.3328 25.9391L27.9658 25.9815Z" fill="white"/>
</svg>
