<svg width="40" height="40" viewBox="0 0 40 40" fill="none" xmlns="http://www.w3.org/2000/svg">
<path d="M31.4721 22.9825L30.7516 20.3592C30.3956 19.0201 29.8458 17.7402 29.1198 16.5599C28.3132 15.2606 27.2725 14.0968 26.1087 13.598C25.4699 13.345 24.8079 13.1553 24.132 13.0315C21.4204 12.4327 18.6108 12.4327 15.8991 13.0315C15.2233 13.1553 14.5613 13.345 13.9225 13.598C12.7464 14.0722 11.718 15.2606 10.9114 16.5599C10.1854 17.7402 9.63561 19.0201 9.27956 20.3592L8.55911 22.9763C8.42882 23.3003 8.38586 23.6527 8.43448 23.9985C8.48311 24.3443 8.62163 24.6713 8.83622 24.9468L13.1466 29.6759L12.6663 31.7696C12.6602 31.808 12.6617 31.8472 12.6708 31.8851C12.6798 31.9229 12.6963 31.9586 12.7192 31.99C12.742 32.0215 12.7709 32.0481 12.8041 32.0684C12.8373 32.0887 12.8742 32.1022 12.9126 32.1082L17.2231 32.8779V34.7807C17.2236 34.8313 17.2369 34.8809 17.2616 34.925C17.2864 34.9691 17.3218 35.0063 17.3647 35.0331L19.9017 36.6034C19.9496 36.6304 20.0037 36.6445 20.0587 36.6445C20.1137 36.6445 20.1678 36.6304 20.2157 36.6034L22.7527 35.0331C22.7956 35.0063 22.8311 34.9691 22.8558 34.925C22.8806 34.8809 22.8938 34.8313 22.8944 34.7807V32.8779L27.2048 32.1082C27.2813 32.0947 27.3494 32.0515 27.3943 31.9882C27.4393 31.9248 27.4574 31.8462 27.4449 31.7696L26.9646 29.6759L31.2751 24.9468C31.4755 24.6646 31.599 24.3351 31.6336 23.9907C31.6681 23.6463 31.6125 23.2988 31.4721 22.9825ZM18.0297 27.5638C17.9534 27.6833 17.8489 27.7822 17.7255 27.852C17.602 27.9218 17.4633 27.9602 17.3216 27.9641L14.7292 28.001H14.5814C12.4939 27.4961 10.973 24.6758 10.8067 24.3556C10.6767 24.0448 10.6037 23.7132 10.5912 23.3765L10.5481 22.0834C10.5464 22.0342 10.5561 21.9853 10.5764 21.9404C10.5966 21.8956 10.627 21.856 10.665 21.8248C10.7016 21.7951 10.7447 21.7747 10.7907 21.765C10.8368 21.7554 10.8845 21.7569 10.9298 21.7694L11.8966 22.0218C12.6248 22.2297 13.2922 22.6099 13.8425 23.1302L16.8721 26.1291C16.9464 26.2098 17.0395 26.2712 17.143 26.3076L18.1036 26.6894C18.15 26.7107 18.1914 26.7415 18.2254 26.7796C18.2593 26.8178 18.2849 26.8625 18.3007 26.9111C18.3176 26.962 18.3231 27.0159 18.3167 27.0692C18.3103 27.1224 18.2922 27.1736 18.2637 27.219L18.0297 27.5638ZM21.5704 31.7388L20.1172 32.7055C20.0795 32.7297 20.0357 32.7425 19.991 32.7425C19.9462 32.7425 19.9024 32.7297 19.8647 32.7055L18.4115 31.7388C18.3494 31.6925 18.3046 31.6266 18.2845 31.5517C18.2644 31.4769 18.2701 31.3974 18.3007 31.3262L19.7539 28.6599C19.7685 28.6082 19.7995 28.5627 19.8423 28.5303C19.8851 28.4979 19.9373 28.4804 19.991 28.4804C20.0446 28.4804 20.0969 28.4979 20.1397 28.5303C20.1824 28.5627 20.2135 28.6082 20.2281 28.6599L21.6813 31.3262C21.7145 31.3948 21.7242 31.4725 21.7086 31.5472C21.693 31.6218 21.653 31.6892 21.5951 31.7388H21.5704ZM29.3908 23.3704C29.3781 23.7044 29.3072 24.0336 29.1814 24.3433C29.009 24.6697 27.488 27.4899 25.4129 27.9887H25.2528L22.6604 27.9517C22.5186 27.9479 22.38 27.9095 22.2565 27.8397C22.1331 27.7699 22.0286 27.671 21.9522 27.5515L21.7182 27.2005C21.6897 27.1551 21.6716 27.1039 21.6653 27.0507C21.6589 26.9975 21.6643 26.9435 21.6813 26.8926C21.697 26.844 21.7227 26.7993 21.7566 26.7611C21.7905 26.723 21.8319 26.6923 21.8783 26.6709L22.8389 26.2892C22.9436 26.2513 23.0383 26.1902 23.116 26.1106L26.1395 23.1118C26.6906 22.5926 27.3577 22.2126 28.0853 22.0034L29.0521 21.7509C29.0975 21.7384 29.1452 21.7369 29.1912 21.7465C29.2373 21.7562 29.2804 21.7767 29.3169 21.8063C29.355 21.8375 29.3853 21.8771 29.4056 21.9219C29.4259 21.9668 29.4356 22.0157 29.4339 22.0649L29.3908 23.3704Z" fill="white"/>
<path d="M11.2566 31.4433V31.3879V31.3386L11.5214 30.1871L7.88218 26.1722L7.83291 26.123L7.7898 26.0676C7.38719 25.5517 7.12276 24.9417 7.02148 24.2953C6.92019 23.6488 6.9854 22.9872 7.21097 22.3729L7.9068 19.8421C8.28607 18.4408 8.85145 17.0967 9.58786 15.8457H9.4524C8.32539 15.8412 7.20153 15.9652 6.10259 16.2152C5.5524 16.3134 5.01383 16.4682 4.49542 16.677C3.44909 17.211 2.59002 18.0508 2.03232 19.0847C1.44461 20.0424 0.996709 21.0792 0.702229 22.1635L0.117235 24.2941C0.0109639 24.5574 -0.0239075 24.8441 0.0160971 25.1253C0.0561017 25.4064 0.1696 25.6719 0.345107 25.8951L3.83654 29.7437L3.4486 31.4494C3.43953 31.5121 3.45494 31.5758 3.49163 31.6274C3.52832 31.679 3.58349 31.7145 3.64565 31.7265L7.13708 32.3423V33.8941C7.13759 33.9351 7.14862 33.9753 7.1691 34.0109C7.18959 34.0465 7.21884 34.0762 7.25408 34.0973L9.31691 35.3719C9.35578 35.3959 9.40057 35.4086 9.44624 35.4086C9.49191 35.4086 9.53669 35.3959 9.57557 35.3719L11.6384 34.0973C11.6736 34.0762 11.7029 34.0465 11.7234 34.0109C11.7439 33.9753 11.7549 33.9351 11.7554 33.8941V33.1736C11.5506 32.9393 11.3998 32.6629 11.3136 32.3639C11.2274 32.0649 11.208 31.7506 11.2566 31.4433ZM7.87602 28.0565C7.81328 28.1533 7.72765 28.2332 7.62669 28.2891C7.52573 28.3449 7.41256 28.375 7.29719 28.3767L5.18509 28.4137H5.09887C3.39933 28.0011 2.16162 25.7104 2.02 25.4518C1.91465 25.1973 1.85425 24.9264 1.84143 24.6513L1.80449 23.5983C1.80444 23.5583 1.81324 23.5188 1.83027 23.4826C1.84731 23.4464 1.87214 23.4144 1.903 23.389C1.93283 23.3649 1.96774 23.348 2.00508 23.3395C2.04242 23.3309 2.0812 23.331 2.1185 23.3397L2.90671 23.549C3.49988 23.7179 4.04303 24.0285 4.48926 24.4542L6.95236 26.9173C7.01821 26.9777 7.09297 27.0276 7.17403 27.0651L7.95607 27.373C7.99534 27.3885 8.03063 27.4126 8.05939 27.4435C8.08816 27.4744 8.10965 27.5113 8.12231 27.5516C8.13497 27.5938 8.13824 27.6383 8.13185 27.6819C8.12547 27.7255 8.10959 27.7672 8.08536 27.804L7.87602 28.0565ZM10.7578 31.4556L9.57557 32.2376C9.54477 32.2588 9.50824 32.2701 9.47086 32.2701C9.43348 32.2701 9.39699 32.2588 9.36619 32.2376L8.17774 31.4802C8.12843 31.4409 8.0933 31.3865 8.07773 31.3254C8.06217 31.2642 8.06702 31.1997 8.09153 31.1416L9.27384 28.9679C9.28675 28.9265 9.3125 28.8904 9.34739 28.8647C9.38229 28.8391 9.42446 28.8252 9.46777 28.8252C9.51109 28.8252 9.5533 28.8391 9.58819 28.8647C9.62309 28.8904 9.64884 28.9265 9.66175 28.9679L10.8441 31.1416C10.8686 31.1997 10.8734 31.2642 10.8579 31.3254C10.8423 31.3865 10.8072 31.4409 10.7578 31.4802V31.4556Z" fill="white"/>
<path d="M39.8897 24.3496L39.2739 22.219C38.9795 21.1346 38.5316 20.0978 37.9439 19.1401C37.3862 18.1062 36.5271 17.2664 35.4808 16.7324C34.9624 16.5236 34.4238 16.3688 33.8736 16.2706C32.7746 16.0206 31.6508 15.8966 30.5238 15.9011H30.3883C31.1247 17.1521 31.6901 18.4962 32.0694 19.8975L32.7652 22.4283C32.9908 23.0426 33.056 23.7042 32.9547 24.3507C32.8534 24.9972 32.589 25.6071 32.1864 26.123L32.1432 26.1784L32.1001 26.2277L28.4979 30.2117L28.7627 31.3632V31.4125V31.4433C28.8147 31.7592 28.7947 32.0828 28.704 32.3899C28.6134 32.697 28.4545 32.9797 28.2393 33.2167V33.9372C28.2398 33.9782 28.2508 34.0185 28.2712 34.054C28.2917 34.0896 28.321 34.1193 28.3563 34.1404L30.4191 35.415C30.458 35.439 30.5027 35.4517 30.5484 35.4517C30.5941 35.4517 30.6388 35.439 30.6777 35.415L32.7406 34.1404C32.7758 34.1193 32.8051 34.0896 32.8255 34.054C32.846 34.0185 32.8571 33.9782 32.8576 33.9372V32.3854L36.349 31.7696C36.4112 31.7576 36.4663 31.7221 36.503 31.6706C36.5397 31.619 36.5551 31.5552 36.5461 31.4925L36.1581 29.7868L39.6495 25.9383C39.8249 25.7175 39.9394 25.4547 39.9815 25.1759C40.0236 24.8972 39.992 24.6123 39.8897 24.3496ZM31.8477 31.4802L30.6654 32.2623C30.6346 32.2834 30.5981 32.2948 30.5607 32.2948C30.5233 32.2948 30.4868 32.2834 30.456 32.2623L29.2738 31.4802C29.2236 31.4415 29.1878 31.3872 29.1722 31.3258C29.1566 31.2644 29.162 31.1995 29.1875 31.1416L30.3452 28.9802C30.3581 28.9388 30.3839 28.9027 30.4188 28.8771C30.4537 28.8514 30.4959 28.8376 30.5392 28.8376C30.5825 28.8376 30.6247 28.8514 30.6595 28.8771C30.6944 28.9027 30.7202 28.9388 30.7331 28.9802L31.9154 31.1539C31.9391 31.2086 31.9454 31.2694 31.9333 31.3278C31.9211 31.3862 31.8912 31.4394 31.8477 31.4802ZM38.2148 24.6698C38.2024 24.9404 38.1441 25.2069 38.0424 25.4579C37.9008 25.7289 36.663 28.0196 34.9635 28.4321H34.8342L32.7221 28.3952C32.6067 28.3935 32.4935 28.3634 32.3926 28.3075C32.2916 28.2517 32.206 28.1718 32.1432 28.075L31.9585 27.7856C31.9343 27.7487 31.9185 27.7071 31.9121 27.6634C31.9057 27.6198 31.9089 27.5753 31.9216 27.5331C31.9342 27.4928 31.9557 27.4559 31.9845 27.425C32.0133 27.3941 32.0486 27.37 32.0879 27.3545L32.8699 27.0466C32.9509 27.0091 33.0257 26.9592 33.0916 26.8989L35.5547 24.4358C36.0009 24.0101 36.544 23.6994 37.1372 23.5306L37.9254 23.3212C37.9627 23.3125 38.0015 23.3125 38.0388 23.321C38.0762 23.3295 38.1111 23.3465 38.1409 23.3705C38.1718 23.3959 38.1966 23.4279 38.2137 23.4641C38.2307 23.5003 38.2395 23.5398 38.2394 23.5798L38.2148 24.6698Z" fill="white"/>
<path d="M13.9047 9.84803L13.1904 12.3111C14.4219 11.5968 17.0082 11.0796 20.0193 11.0796C23.0305 11.0796 25.6167 11.5722 26.8421 12.3111L26.1278 9.84803L27.1993 6.94158C27.2214 6.88896 27.2281 6.83114 27.2187 6.77485C27.2093 6.71855 27.1841 6.66609 27.1461 6.62354C27.108 6.58098 27.0587 6.55009 27.0038 6.53444C26.9489 6.5188 26.8907 6.51906 26.8359 6.53517L24.4775 7.33568C24.724 7.7686 24.803 8.277 24.6992 8.76427C24.6225 9.14127 24.435 9.48679 24.1607 9.75664C23.8865 10.0265 23.538 10.2084 23.1598 10.2791C22.8854 10.3169 22.6061 10.2943 22.3414 10.213C22.0767 10.1317 21.8329 9.99351 21.6271 9.80822C21.4213 9.62292 21.2584 9.39494 21.1498 9.14018C21.0412 8.88542 20.9896 8.61002 20.9984 8.33323C20.9964 7.9922 21.0827 7.65647 21.2489 7.35866C21.4151 7.06085 21.6554 6.81111 21.9467 6.63369L20.2533 4.13364C20.2286 4.09285 20.1939 4.05913 20.1523 4.03571C20.1108 4.0123 20.0639 4 20.0162 4C19.9686 4 19.9217 4.0123 19.8802 4.03571C19.8386 4.05913 19.8039 4.09285 19.7792 4.13364L18.0858 6.63369C18.4287 6.84361 18.6999 7.15251 18.8637 7.51967C19.0275 7.88682 19.0762 8.295 19.0033 8.69038C18.9559 9.18032 18.7159 9.63138 18.336 9.94433C17.956 10.2573 17.4673 10.4065 16.9774 10.3591C16.4874 10.3118 16.0364 10.0717 15.7234 9.69178C15.4105 9.31185 15.2613 8.82317 15.3087 8.33323C15.3093 7.98343 15.4005 7.63976 15.5734 7.33568L13.215 6.53517C13.1603 6.51906 13.1021 6.5188 13.0472 6.53444C12.9923 6.55009 12.9429 6.58098 12.9049 6.62354C12.8669 6.66609 12.8417 6.71855 12.8323 6.77485C12.8228 6.83114 12.8296 6.88896 12.8517 6.94158L13.9047 9.84803Z" fill="white"/>
</svg>
