<svg width="40" height="40" viewBox="0 0 40 40" fill="none" xmlns="http://www.w3.org/2000/svg">
<path d="M34.2315 18.7446L33.3378 15.4947C32.888 13.8361 32.2066 12.2491 31.3137 10.7802C30.3131 9.17818 29.0223 7.72872 27.571 7.11843C26.7812 6.80516 25.9625 6.57009 25.1268 6.41659C21.7618 5.66387 18.2718 5.66387 14.9069 6.41659C14.0713 6.57094 13.2527 6.80599 12.4627 7.11843C11.0038 7.69821 9.72823 9.17818 8.72763 10.7802C7.82906 12.2471 7.14487 13.8346 6.69585 15.4947L5.80984 18.7369C5.64667 19.138 5.59251 19.575 5.65287 20.0037C5.71323 20.4324 5.88597 20.8376 6.15356 21.1781L11.5003 27.037L10.9045 29.6307C10.889 29.7257 10.9115 29.823 10.9672 29.9015C11.023 29.9801 11.1075 30.0335 11.2024 30.0503L16.5491 30.9963V33.3612C16.5483 33.4241 16.5641 33.4861 16.595 33.5411C16.6258 33.596 16.6706 33.6418 16.7248 33.6739L19.8717 35.6192C19.9312 35.6527 19.9982 35.6702 20.0665 35.6702C20.1347 35.6702 20.2018 35.6527 20.2613 35.6192L23.4082 33.6739C23.4614 33.6407 23.5054 33.5946 23.5361 33.54C23.5668 33.4853 23.5832 33.4238 23.5838 33.3612V30.9963L28.9306 30.0503C28.978 30.0429 29.0235 30.0261 29.0644 30.0009C29.1052 29.9757 29.1406 29.9425 29.1683 29.9034C29.1961 29.8643 29.2158 29.82 29.2261 29.7731C29.2364 29.7263 29.2372 29.6779 29.2285 29.6307L28.6404 27.037L33.9871 21.1781C34.2357 20.8285 34.3889 20.4203 34.4318 19.9936C34.4746 19.567 34.4056 19.1365 34.2315 18.7446ZM17.5802 24.4203C17.4872 24.5682 17.3591 24.6908 17.2071 24.7773C17.0552 24.8638 16.8843 24.9115 16.7095 24.9162L13.4862 24.962H13.3105C10.7136 24.3364 8.83456 20.8501 8.62833 20.4534C8.46708 20.0684 8.3765 19.6575 8.36096 19.2404L8.30749 17.6384C8.30351 17.5772 8.31467 17.516 8.33998 17.4601C8.36529 17.4042 8.40397 17.3554 8.45262 17.318C8.49814 17.2815 8.55134 17.2557 8.60819 17.2425C8.66504 17.2293 8.72413 17.229 8.7811 17.2417L9.97265 17.5621C10.8766 17.818 11.7049 18.2892 12.3863 18.9353L16.1443 22.6505C16.2393 22.7472 16.3539 22.8226 16.4803 22.8717L17.6719 23.3447C17.7326 23.3675 17.787 23.4042 17.8308 23.4519C17.8746 23.4996 17.9065 23.557 17.924 23.6193C17.9439 23.6829 17.9494 23.7501 17.9402 23.816C17.9309 23.882 17.9071 23.9451 17.8705 24.0007L17.5802 24.4203ZM21.9798 29.5926L20.1772 30.7903C20.129 30.82 20.0735 30.8357 20.0168 30.8357C19.9602 30.8357 19.9047 30.82 19.8565 30.7903L18.0538 29.5926C17.9791 29.5334 17.9259 29.4513 17.9025 29.3589C17.879 29.2666 17.8866 29.1691 17.924 29.0814L19.7189 25.7782C19.7393 25.7154 19.7792 25.6606 19.8327 25.6217C19.8862 25.5829 19.9507 25.5619 20.0168 25.5619C20.083 25.5619 20.1475 25.5829 20.201 25.6217C20.2545 25.6606 20.2943 25.7154 20.3147 25.7782L22.1097 29.0814C22.1484 29.1689 22.1567 29.2667 22.1331 29.3594C22.1096 29.4521 22.0556 29.5342 21.9798 29.5926ZM31.6727 19.2252C31.6615 19.6371 31.5734 20.0433 31.413 20.4229C31.2067 20.8348 29.3201 24.3211 26.7461 24.9467H26.5475L23.3242 24.9009C23.1497 24.895 22.9792 24.8467 22.8275 24.7603C22.6758 24.674 22.5474 24.552 22.4534 24.405L22.1632 23.9702C22.1265 23.9145 22.1028 23.8515 22.0935 23.7855C22.0843 23.7195 22.0898 23.6523 22.1097 23.5888C22.1271 23.5264 22.1591 23.4691 22.2029 23.4214C22.2467 23.3737 22.3011 23.3369 22.3618 23.3142L23.5533 22.8412C23.6798 22.7921 23.7944 22.7167 23.8894 22.6199L27.6474 18.9048C28.3299 18.2602 29.1578 17.7892 30.0611 17.5316L31.2603 17.2112C31.3159 17.1967 31.3742 17.1961 31.4301 17.2094C31.4861 17.2227 31.5379 17.2495 31.581 17.2875C31.6292 17.3258 31.668 17.3745 31.6945 17.4301C31.721 17.4856 31.7344 17.5464 31.7338 17.6079L31.6727 19.2252Z" fill="white"/>
<path d="M32.9632 9.14006L39.9064 0.748488C39.9713 0.669436 40.0045 0.569084 39.9995 0.466939C39.9944 0.364795 39.9516 0.268158 39.8792 0.195845C39.8068 0.123531 39.71 0.0807083 39.6078 0.0756916C39.5055 0.070675 39.405 0.103831 39.3258 0.168711L31.1377 6.89722C31.8213 7.58064 32.433 8.33217 32.9632 9.14006Z" fill="white"/>
<path d="M7.07001 9.13991C7.5977 8.31609 8.20949 7.54912 8.89555 6.8513L0.715089 0.122793C0.63811 0.0448972 0.533297 0.000724137 0.423716 8.82463e-06C0.314135 -0.000706488 0.20875 0.0420907 0.130758 0.118974C0.0527654 0.195858 0.00853757 0.300541 0.00782134 0.409986C0.0071051 0.519432 0.0499555 0.624674 0.126935 0.70257L7.07001 9.13991Z" fill="white"/>
<path d="M8.62042 29.2263V29.1576V29.0966L8.67389 28.8601L0.119122 39.2885C0.042143 39.3664 -0.000707382 39.4717 8.83601e-06 39.5811C0.000725054 39.6906 0.0449529 39.7952 0.122945 39.8721C0.200937 39.949 0.306322 39.9918 0.415904 39.9911C0.525485 39.9904 0.630298 39.9462 0.707277 39.8683L10.1481 32.1099C9.6084 31.8676 9.1651 31.4525 8.88839 30.9301C8.61168 30.4078 8.51739 29.8082 8.62042 29.2263Z" fill="white"/>
<path d="M31.3365 28.8906L31.3899 29.1271V29.1882V29.2263C31.4844 29.8034 31.386 30.3955 31.1098 30.9112C30.8337 31.4269 30.3953 31.8374 29.8623 32.0794L39.326 39.9065C39.4052 39.9713 39.5057 40.0045 39.6079 39.9995C39.7102 39.9945 39.8069 39.9516 39.8793 39.8793C39.9518 39.807 39.9946 39.7104 39.9996 39.6082C40.0047 39.5061 39.9715 39.4057 39.9065 39.3267L31.3365 28.8906Z" fill="white"/>
</svg>
