<?xml version="1.0" encoding="UTF-8"?>
<!DOCTYPE svg PUBLIC "-//W3C//DTD SVG 1.1//EN" "http://www.w3.org/Graphics/SVG/1.1/DTD/svg11.dtd">
<svg xmlns="http://www.w3.org/2000/svg" version="1.1" width="810px" height="810px" style="shape-rendering:geometricPrecision; text-rendering:geometricPrecision; image-rendering:optimizeQuality; fill-rule:evenodd; clip-rule:evenodd" xmlns:xlink="http://www.w3.org/1999/xlink">
<g><path style="opacity:0.9" fill="#fefffe" d="M 256.5,127.5 C 267.838,127.333 279.172,127.5 290.5,128C 316.969,154.469 343.302,180.802 369.5,207C 367.037,210.465 364.204,213.631 361,216.5C 335.197,193.031 310.364,168.531 286.5,143C 277.833,142.333 269.167,142.333 260.5,143C 247.696,156.805 234.529,170.305 221,183.5C 220.945,192.601 220.278,201.601 219,210.5C 174.167,255.333 129.333,300.167 84.5,345C 74.7337,345.051 65.0671,345.718 55.5,347C 43.68,360.12 31.5134,372.954 19,385.5C 18.3333,392.833 18.3333,400.167 19,407.5C 31.8039,421.305 44.9706,434.805 58.5,448C 67.9336,448.053 77.2669,448.72 86.5,450C 131,494.5 175.5,539 220,583.5C 221.278,592.399 221.945,601.399 222,610.5C 235.863,624.029 249.363,637.862 262.5,652C 269.833,652.667 277.167,652.667 284.5,652C 309.472,626.028 334.805,600.361 360.5,575C 362.044,573.813 363.711,573.48 365.5,574C 367.667,576.167 369.833,578.333 372,580.5C 372.624,582.464 372.124,584.131 370.5,585.5C 343.482,612.017 316.482,638.851 289.5,666C 278.833,666.667 268.167,666.667 257.5,666C 172.527,581.272 87.6937,496.439 3,411.5C 2.19099,401.12 2.35766,390.786 3.5,380.5C 88.103,296.379 172.436,212.046 256.5,127.5 Z"/></g>
<g><path style="opacity:0.978" fill="#fefffe" d="M 517.5,127.5 C 528.838,127.333 540.172,127.5 551.5,128C 636.667,212.167 721.167,297.001 805,382.5C 805.667,391.833 805.667,401.167 805,410.5C 720.737,496.219 635.904,581.386 550.5,666C 539.833,666.667 529.167,666.667 518.5,666C 462.258,609.621 406.258,553.788 350.5,498.5C 387.829,497.333 425.162,497.167 462.5,498C 458.763,512.257 456.93,526.757 457,541.5C 462.8,561.49 475.966,569.323 496.5,565C 501.28,563.444 505.613,561.111 509.5,558C 563.647,510.764 617.98,463.764 672.5,417C 685.318,403.358 686.818,388.525 677,372.5C 638.333,325.833 599.667,279.167 561,232.5C 549.111,220.598 535.611,218.432 520.5,226C 512.805,231.218 507.972,238.385 506,247.5C 503.39,262.16 500.89,276.826 498.5,291.5C 450.166,291.667 401.832,291.5 353.5,291C 407.963,237.039 462.629,182.539 517.5,127.5 Z"/></g>
<g><path style="opacity:0.992" fill="#fefffe" d="M 535.5,249.5 C 576.297,296.544 616.297,344.378 655.5,393C 598.872,441.293 542.538,489.96 486.5,539C 485.517,539.591 484.85,539.257 484.5,538C 488.731,514.611 493.064,491.277 497.5,468C 398.501,467.5 299.501,467.333 200.5,467.5C 208.833,418.833 217.167,370.167 225.5,321.5C 324.501,321.667 423.501,321.5 522.5,321C 527.1,297.237 531.433,273.404 535.5,249.5 Z"/></g>
</svg>
