<svg width="40" height="40" viewBox="0 0 40 40" fill="none" xmlns="http://www.w3.org/2000/svg">
<g clip-path="url(#clip0_5887_44570)">
<path d="M39.4495 19.1366L27.8627 7.54976C27.5084 7.19545 27.036 7 26.5322 7C26.0284 7 25.5565 7.19545 25.2017 7.54976L17.6445 15.1069H24.6514L24.9524 13.4012C25.1552 12.251 25.996 11.7362 26.7391 11.7362C27.2884 11.7362 27.8047 11.9954 28.1924 12.4663L33.4581 18.8591C33.8652 19.3535 34.0324 20.0125 33.9169 20.6678C33.816 21.239 33.5103 21.7663 33.0562 22.1525L25.5361 28.5453C25.1102 28.9075 24.6587 29.0909 24.1946 29.0909C23.7055 29.0909 23.2461 28.8782 22.9347 28.5072C22.6912 28.2166 22.4299 27.7055 22.5689 26.918L22.7743 25.7521H17.5703L25.2022 33.384C25.5565 33.7383 26.0289 33.9337 26.5327 33.9337C27.036 33.9337 27.5084 33.7383 27.8632 33.384L39.4501 21.7971C40.1833 21.0639 40.1833 19.8703 39.4495 19.1366Z" fill="white"/>
<path d="M14.2071 32.7927C14.0038 32.996 13.7357 33.0973 13.4682 33.0973C13.2006 33.0973 12.9325 32.996 12.7292 32.7927L10.8134 30.8769C10.8202 30.8701 10.8254 30.8617 10.8275 30.8518L11.0491 29.8913C11.0533 29.8735 11.048 29.8552 11.035 29.8427L4.09238 22.9001C4.08245 22.8901 4.06939 22.8849 4.05528 22.8849C4.05162 22.8849 4.04744 22.8854 4.04326 22.8865L3.08275 23.1081C3.07282 23.1101 3.06446 23.1154 3.05767 23.1222L1.14185 21.2063C0.735273 20.7998 0.735273 20.1345 1.14185 19.7285L3.05767 17.8127C3.06446 17.8195 3.07282 17.8247 3.08275 17.8268L4.04326 18.0484C4.04744 18.0494 4.0511 18.0499 4.05528 18.0499C4.06887 18.0499 4.08245 18.0447 4.09238 18.0348L11.035 11.0922C11.0475 11.0796 11.0528 11.0608 11.0491 11.0436L10.8275 10.083C10.8254 10.0731 10.8202 10.0647 10.8134 10.058L12.7292 8.14216C12.9325 7.93887 13.2006 7.83749 13.4682 7.83749C13.7357 7.83749 14.0038 7.93887 14.2071 8.14216L17.6369 11.5719L18.2279 10.9809L14.7982 7.55111C14.4438 7.19679 13.9714 7.00134 13.4676 7.00134C12.9639 7.00134 12.492 7.19679 12.1371 7.55111L0.550286 19.1379C-0.183429 19.8717 -0.183429 21.0653 0.550286 21.7984L12.1371 33.3853C12.4914 33.7396 12.9639 33.9351 13.4676 33.9351C13.9709 33.9351 14.4433 33.7396 14.7982 33.3853L18.2248 29.9587L17.6337 29.3676L14.2071 32.7927Z" fill="white"/>
<path d="M27.0634 13.397C26.9536 13.2637 26.8413 13.2 26.7394 13.2C26.5789 13.2 26.4462 13.3588 26.3939 13.6557L25.8802 16.5706H11.3324C11.0899 16.5706 10.8563 16.7692 10.8135 17.0117L9.60838 23.8477C9.56553 24.0902 9.7291 24.2888 9.9721 24.2888H24.52L24.0114 27.1719C23.9592 27.4687 24.036 27.6276 24.1964 27.6276C24.2984 27.6276 24.4332 27.5638 24.59 27.4306L32.11 21.0377C32.514 20.6944 32.6127 20.1331 32.33 19.7898L27.0634 13.397Z" fill="white"/>
</g>
<defs>
<clipPath id="clip0_5887_44570">
<rect width="40" height="26.9351" fill="white" transform="translate(0 7)"/>
</clipPath>
</defs>
</svg>
