<svg width="40" height="40" viewBox="0 0 40 40" fill="none" xmlns="http://www.w3.org/2000/svg">
<path d="M32.3764 24.6812C29.7007 24.6812 27.5342 26.2518 27.5342 28.1886C27.5342 30.1255 29.7007 31.6899 32.3764 31.6899C35.052 31.6899 37.2248 30.1193 37.2248 28.1886C37.2248 26.258 35.0582 24.6812 32.3764 24.6812ZM32.3764 30.6718C30.8492 30.6718 29.6076 29.8399 29.6076 28.8094C29.6076 27.7789 30.8492 26.947 32.3764 26.947C33.9035 26.947 35.1451 27.7851 35.1451 28.8094C35.1451 29.8337 33.9097 30.6718 32.3764 30.6718V30.6718Z" fill="white"/>
<path d="M16.435 37.0846L28.1556 4.87794C28.2052 4.73769 28.2204 4.5876 28.2001 4.44025C28.1798 4.29289 28.1244 4.15255 28.0387 4.03098C27.953 3.9094 27.8394 3.81013 27.7075 3.74147C27.5755 3.67281 27.429 3.63677 27.2803 3.63635C27.0882 3.63689 26.9009 3.69684 26.7442 3.80798C26.5875 3.91912 26.469 4.07601 26.405 4.25714L14.6968 36.4514C14.6472 36.5917 14.632 36.7418 14.6523 36.8891C14.6726 37.0365 14.728 37.1768 14.8137 37.2984C14.8994 37.42 15.013 37.5192 15.1449 37.5879C15.2769 37.6565 15.4234 37.6926 15.5721 37.693C15.7604 37.69 15.9435 37.6304 16.0974 37.5219C16.2513 37.4133 16.369 37.261 16.435 37.0846V37.0846Z" fill="white"/>
<path d="M15.5904 28.5425L20.8857 13.9912C20.1117 12.3327 18.9345 10.8946 17.4617 9.80803C15.9889 8.72151 14.2673 8.02123 12.4543 7.77113C10.6412 7.52102 8.79441 7.72906 7.08244 8.37625C5.37047 9.02344 3.84789 10.0892 2.65371 11.4761C1.45953 12.8631 0.631791 14.5271 0.246082 16.3162C-0.139628 18.1053 -0.0710264 19.9626 0.445621 21.7183C0.962268 23.4741 1.9105 25.0725 3.20375 26.3676C4.497 27.6627 6.09405 28.6132 7.8491 29.1323L10.4254 33.7324C10.4822 33.8169 10.5589 33.8861 10.6487 33.934C10.7386 33.9819 10.8388 34.0069 10.9406 34.0069C11.0425 34.0069 11.1427 33.9819 11.2326 33.934C11.3224 33.8861 11.3991 33.8169 11.4559 33.7324L14.0322 29.1323C14.5658 28.9756 15.0867 28.7784 15.5904 28.5425V28.5425ZM11.4683 25.2275C11.4049 25.2913 11.3294 25.342 11.2463 25.3765C11.1632 25.4111 11.0741 25.4289 10.9841 25.4289C10.8941 25.4289 10.805 25.4111 10.7219 25.3765C10.6388 25.342 10.5633 25.2913 10.4999 25.2275L4.37267 19.1003C4.30885 19.0368 4.25821 18.9614 4.22365 18.8783C4.18909 18.7952 4.1713 18.7061 4.1713 18.6161C4.1713 18.5261 4.18909 18.437 4.22365 18.3539C4.25821 18.2708 4.30885 18.1953 4.37267 18.1319L10.4999 12.0046C10.5633 11.9408 10.6388 11.8902 10.7219 11.8556C10.805 11.8211 10.8941 11.8033 10.9841 11.8033C11.0741 11.8033 11.1632 11.8211 11.2463 11.8556C11.3294 11.8902 11.4049 11.9408 11.4683 12.0046L17.5955 18.1319C17.6594 18.1953 17.71 18.2708 17.7446 18.3539C17.7791 18.437 17.7969 18.5261 17.7969 18.6161C17.7969 18.7061 17.7791 18.7952 17.7446 18.8783C17.71 18.9614 17.6594 19.0368 17.5955 19.1003L11.4683 25.2275Z" fill="white"/>
<path d="M21.9282 18.6098C21.9249 18.0564 21.8772 17.5042 21.7854 16.9585L18.1973 26.8229C19.368 25.7984 20.3065 24.5358 20.9499 23.1194C21.5934 21.703 21.9269 20.1655 21.9282 18.6098V18.6098Z" fill="white"/>
<path d="M25.4794 9.98706C25.3148 9.98706 25.1569 10.0525 25.0405 10.1689C24.9241 10.2853 24.8586 10.4432 24.8586 10.6079L20.9663 23.4583L20.0537 24.6998C20.2819 24.923 20.4896 25.1661 20.6745 25.4262L26.2616 10.0057L25.4794 9.98706Z" fill="white"/>
<path d="M37.5414 14.2643H34.0773L31.8363 10.6016C31.7285 10.4149 31.5739 10.2594 31.3878 10.1506C31.2016 10.0417 30.9904 9.98322 30.7747 9.98083H28.2916L27.8446 11.2224H30.2533C30.3588 11.2222 30.4626 11.2489 30.5549 11.2999C30.6472 11.351 30.725 11.4247 30.7809 11.5142L32.4447 14.2333H26.7396L22.2637 26.5374H24.7468C24.7573 26.6795 24.8164 26.8137 24.9141 26.9174C25.0118 27.0211 25.1423 27.088 25.2835 27.107C25.4247 27.1259 25.5682 27.0957 25.6898 27.0213C25.8113 26.947 25.9036 26.8331 25.9512 26.6988C26.1475 26.1458 26.4281 25.6264 26.783 25.1592C27.5091 24.4121 28.3777 23.8182 29.3374 23.4126C30.2971 23.007 31.3283 22.7981 32.3702 22.7981C33.412 22.7981 34.4433 23.007 35.403 23.4126C36.3626 23.8182 37.2312 24.4121 37.9573 25.1592C38.3178 25.6261 38.6008 26.1481 38.7954 26.705C38.8367 26.8273 38.9151 26.9337 39.0197 27.0093C39.1243 27.085 39.2498 27.1262 39.3789 27.1271C39.4463 27.1264 39.5132 27.1159 39.5776 27.0961C39.695 27.0566 39.798 26.9829 39.8732 26.8845C39.9485 26.786 39.9925 26.6673 39.9997 26.5436V16.7475C39.9997 16.0932 39.7415 15.4653 39.2812 15.0003C38.8209 14.5353 38.1956 14.2708 37.5414 14.2643Z" fill="white"/>
</svg>
