<svg width="40" height="40" viewBox="0 0 40 40" fill="none" xmlns="http://www.w3.org/2000/svg">
<path d="M4.05336 7.90771H19.601V21.8432H2.56055V9.40053C2.56055 9.00461 2.71782 8.62491 2.99778 8.34495C3.27774 8.06499 3.65744 7.90771 4.05336 7.90771Z" fill="white"/>
<path d="M9.88218 24.075C6.66516 24.075 4.05273 25.9634 4.05273 28.2922C4.05273 30.6209 6.66516 32.5019 9.88218 32.5019C13.0992 32.5019 15.7042 30.6135 15.7042 28.2922C15.7042 25.9708 13.0992 24.075 9.88218 24.075ZM9.88218 31.2778C8.03855 31.2778 6.55321 30.2776 6.55321 29.0386C6.55321 27.7995 8.04601 26.7993 9.88218 26.7993C11.7183 26.7993 13.2112 27.807 13.2112 29.0386C13.2112 30.2701 11.7183 31.2778 9.88218 31.2778V31.2778Z" fill="white"/>
<path d="M3.73204 24.075H0V26.3142H2.23922C2.56386 25.4659 3.07389 24.7009 3.73204 24.075V24.075Z" fill="white"/>
<path d="M30.849 24.075C27.632 24.075 25.0195 25.9634 25.0195 28.2922C25.0195 30.6209 27.632 32.5019 30.849 32.5019C34.066 32.5019 36.671 30.6135 36.671 28.2922C36.671 25.9708 34.066 24.075 30.849 24.075ZM30.849 31.2778C29.0128 31.2778 27.52 30.2776 27.52 29.0386C27.52 27.7995 29.0128 26.7993 30.849 26.7993C32.6851 26.7993 34.1779 27.807 34.1779 29.0386C34.1779 30.2701 32.6851 31.2778 30.849 31.2778V31.2778Z" fill="white"/>
<path d="M40.0004 26.3217V14.5359C40.0004 13.744 39.6858 12.9846 39.1259 12.4247C38.566 11.8648 37.8066 11.5502 37.0147 11.5502H32.8498L30.1553 7.14643C30.0263 6.92297 29.8416 6.73675 29.6192 6.60593C29.3968 6.47512 29.1443 6.40418 28.8863 6.40002H22.5568C22.3589 6.40002 22.169 6.47866 22.029 6.61864C21.889 6.75862 21.8104 6.94847 21.8104 7.14643V24.0675H16.0332C16.7078 24.6902 17.2355 25.455 17.5783 26.3067H21.691C21.6996 26.4555 21.7526 26.5982 21.843 26.7166C21.9335 26.835 22.0573 26.9236 22.1985 26.971C22.2916 27.0026 22.3901 27.0155 22.4882 27.009C22.5863 27.0025 22.6822 26.9766 22.7702 26.9329C22.8583 26.8892 22.9369 26.8285 23.0015 26.7544C23.0661 26.6802 23.1153 26.594 23.1465 26.5008C23.3764 25.8332 23.7143 25.2079 24.1467 24.6497C25.0181 23.7552 26.0597 23.0444 27.2103 22.559C28.3608 22.0736 29.5969 21.8235 30.8457 21.8235C32.0944 21.8235 33.3305 22.0736 34.4811 22.559C35.6316 23.0444 36.6733 23.7552 37.5447 24.6497C37.9782 25.2111 38.3184 25.8387 38.5523 26.5083C38.6024 26.6565 38.6978 26.7853 38.825 26.8764C38.9523 26.9674 39.105 27.0162 39.2614 27.0158C39.3423 27.0138 39.4226 27.0012 39.5003 26.9785C39.639 26.9303 39.7604 26.8423 39.8494 26.7255C39.9384 26.6087 39.9909 26.4682 40.0004 26.3217ZM23.46 7.90776H28.2892C28.4161 7.90751 28.5409 7.93959 28.6519 8.00097C28.7629 8.06235 28.8565 8.15101 28.9237 8.25857L30.9241 11.5502H23.46V7.90776Z" fill="white"/>
</svg>
