<?xml version="1.0" encoding="UTF-8"?>
<svg version="1.1" xmlns="http://www.w3.org/2000/svg" width="512" height="512">
<path d="M0 0 C168.96 0 337.92 0 512 0 C512 168.96 512 337.92 512 512 C343.04 512 174.08 512 0 512 C0 343.04 0 174.08 0 0 Z " fill="#0B97F5" transform="translate(0,0)"/>
<path d="M0 0 C3.60694254 0.0250017 7.2133057 -0.0135818 10.82013118 -0.04377913 C17.87546394 -0.09258386 24.92950654 -0.08217876 31.98488898 -0.05024008 C37.72028333 -0.02535573 43.45531711 -0.02204649 49.19075 -0.03400207 C50.00830352 -0.03568763 50.82585705 -0.03737319 51.66818492 -0.03910983 C53.3292301 -0.04262695 54.99027518 -0.0461933 56.65132015 -0.04980834 C72.21102522 -0.08114289 87.77001631 -0.04516123 103.32960426 0.01399569 C116.6707827 0.0631484 130.01090834 0.05459434 143.35206783 0.00388932 C158.85912222 -0.05502022 174.36555175 -0.07813167 189.87270242 -0.04437578 C191.52719027 -0.04087187 193.18167822 -0.03741379 194.83616626 -0.03400207 C196.05710679 -0.03145652 196.05710679 -0.03145652 197.30271279 -0.02885955 C203.02950796 -0.01937504 208.7559056 -0.03536373 214.48263919 -0.06127715 C221.46440707 -0.0921764 228.44481532 -0.08368547 235.42642803 -0.02518897 C238.98676656 0.00366202 242.54484142 0.0151567 246.10516155 -0.02132964 C268.20090078 -0.22769323 268.20090078 -0.22769323 273.6257304 3.49254155 C279.78352259 10.05622405 280.23686731 17.71380975 280.11110103 26.34788346 C280.12332743 27.70936687 280.13936946 29.07082045 280.15889156 30.43221879 C280.19959781 34.09830126 280.18415514 37.76208093 280.15547979 41.42819881 C280.13251719 45.28499438 280.15387452 49.14160718 280.16795528 52.99841142 C280.18428088 59.47365656 280.16288275 65.94797474 280.11989009 72.42307878 C280.07093599 79.88158679 280.08676939 87.33787929 280.13632774 94.79633349 C280.17733535 101.22830331 280.18285292 107.6596109 280.15937972 114.09166938 C280.14543484 117.92081469 280.1432321 121.74892302 280.17320812 125.57799935 C280.19945364 129.18160765 280.1807481 132.78239679 280.12915981 136.38570428 C280.11182519 138.31794451 280.13811803 140.25042686 280.16630733 142.18253922 C280.00229895 149.79913392 278.65505553 156.25584924 273.62964427 162.16160703 C265.8697899 168.05678392 253.18808913 166.06278772 243.96518898 165.93337214 C240.35154287 165.8957987 236.73840271 165.927727 233.12472713 165.95074296 C226.05469372 165.98477475 218.98632381 165.95480289 211.91645662 165.90266617 C203.68123083 165.84416289 195.44637935 165.84776616 187.21099051 165.85345057 C172.51776149 165.86132513 157.82531341 165.81058029 143.13234127 165.72776628 C128.87791864 165.64745611 114.62429226 165.61208579 100.36964595 165.62522721 C82.36041309 165.64173457 64.35167184 165.61810985 46.3425214 165.5616323 C40.60293458 165.54483006 34.86344361 165.54242231 29.1238364 165.54486489 C22.13083271 165.54706226 15.13846533 165.52320876 8.14568154 165.46663936 C4.57812604 165.43830857 1.01144621 165.42099964 -2.55621922 165.4339087 C-6.42316969 165.44746151 -10.28845745 165.4067676 -14.1551801 165.36050248 C-15.84733695 165.37880916 -15.84733695 165.37880916 -17.57367879 165.39748567 C-24.97794571 165.24520317 -24.97794571 165.24520317 -27.97711635 162.99414146 C-29.52170891 161.22193627 -30.7826996 159.41261747 -32.05344975 157.43797135 C-32.82589087 156.5890916 -33.59833199 155.74021184 -34.39418042 154.86560845 C-36.42338452 151.89672867 -36.56896021 150.16980204 -36.60175908 146.59577775 C-36.62170933 145.42681962 -36.64165959 144.25786149 -36.6622144 143.05348039 C-36.66354374 141.77963487 -36.66487309 140.50578935 -36.66624272 139.19334245 C-36.68149508 137.83114143 -36.69835168 136.46895758 -36.71668828 135.1067946 C-36.76051682 131.41222158 -36.77816838 127.71797956 -36.78834116 124.02317595 C-36.7956389 121.71088701 -36.80812466 119.39868402 -36.82234395 117.08642793 C-36.87132182 109.00776977 -36.89743198 100.92936801 -36.90452397 92.85056901 C-36.91178341 85.33994964 -36.97148946 77.83097052 -37.05533314 70.32085192 C-37.12492835 63.8585806 -37.15562411 57.39685003 -37.15701604 50.93420684 C-37.15859615 47.08065304 -37.17580587 43.22876883 -37.23301136 39.37560487 C-37.28570536 35.74509295 -37.2896142 32.11761364 -37.25770009 28.48689103 C-37.25239065 26.53627633 -37.29622927 24.58571656 -37.342085 22.63563371 C-37.23875938 16.36074676 -36.229869 11.43611069 -32.73879826 6.15061784 C-24.16462546 -2.07099035 -11.10623215 -0.11392337 0 0 Z " fill="#E8E4DA" transform="translate(137.0534497499466,158.56202864646912)"/>
<path d="M0 0 C7.59 0 15.18 0 23 0 C23 20.79 23 41.58 23 63 C16.07 62.505 16.07 62.505 9 62 C9 82.13 9 102.26 9 123 C10.98 123 12.96 123 15 123 C15 130.92 15 138.84 15 147 C-43.74 147 -102.48 147 -163 147 C-163 103.45320197 -163 103.45320197 -157.4140625 97.234375 C-156.82367188 96.74453125 -156.23328125 96.2546875 -155.625 95.75 C-154.92632812 95.16863281 -154.22765625 94.58726562 -153.5078125 93.98828125 C-140.50055903 83.67567686 -140.50055903 83.67567686 -135.73828125 80.484375 C-129.59648443 76.3483171 -125.58797873 70.61561939 -121.26904297 64.72021484 C-118.891386 61.49725005 -116.42194706 58.34443223 -113.97021484 55.17773438 C-111.51055871 51.99003533 -109.08813994 48.77831826 -106.69140625 45.54296875 C-106.12075439 44.77952148 -105.55010254 44.01607422 -104.9621582 43.22949219 C-103.84742168 41.73724258 -102.74007292 40.23943622 -101.64135742 38.73535156 C-101.12549072 38.04795898 -100.60962402 37.36056641 -100.078125 36.65234375 C-99.40378418 35.73956665 -99.40378418 35.73956665 -98.71582031 34.80834961 C-94.50405219 30.36945284 -90.51382036 28.51826283 -84.46313477 28.1027832 C-83.18483292 28.00620926 -81.90653107 27.90963531 -80.5894928 27.81013489 C-79.20681593 27.72338586 -77.82411989 27.63694212 -76.44140625 27.55078125 C-75.00931877 27.44840602 -73.57734772 27.34439013 -72.14549255 27.23881531 C-68.38611666 26.9657012 -64.62563886 26.71333719 -60.86450195 26.46582031 C-56.30657231 26.16224837 -51.75027034 25.83534004 -47.1937933 25.51081371 C-43.64607912 25.25842649 -40.09824944 25.00976768 -36.54945374 24.77302551 C-34.62727272 24.64234932 -34.62727272 24.64234932 -32.66625977 24.5090332 C-30.984645 24.39722466 -30.984645 24.39722466 -29.26905823 24.28315735 C-21.39946738 23.62399012 -21.39946738 23.62399012 -14.3125 20.4375 C-10.98770558 18.3528598 -10.14110257 18 -6 18 C-6 14.37 -6 10.74 -6 7 C-5.34 7 -4.68 7 -4 7 C-3.71125 6.401875 -3.4225 5.80375 -3.125 5.1875 C-2 3 -2 3 0 0 Z " fill="#E8E3DA" transform="translate(198,365)"/>
<path d="M0 0 C7.26 0 14.52 0 22 0 C28.75 7.875 28.75 7.875 28.375 12.9375 C28.32085937 13.89527344 28.26671875 14.85304688 28.2109375 15.83984375 C28.14132812 16.55269531 28.07171875 17.26554687 28 18 C29.03125 18.0825 30.0625 18.165 31.125 18.25 C35 19 35 19 37.375 20.94921875 C42.4477318 24.45530222 48.91905278 24.12012733 54.875 24.5625 C56.26624478 24.68017761 57.65735652 24.79943726 59.04833984 24.92016602 C66.37621201 25.54226813 73.71052235 26.05528634 81.04916382 26.53181458 C84.68349236 26.76873597 88.31706792 27.01646453 91.95074463 27.26315308 C94.59002134 27.43521958 97.229944 27.58554804 99.87060547 27.73461914 C101.51014536 27.84178446 103.14963396 27.94973829 104.7890625 28.05859375 C105.53154236 28.0940329 106.27402222 28.12947205 107.03900146 28.16598511 C112.94227533 28.59044523 116.5862749 30.58525401 120.73168945 34.73242188 C121.18761475 35.30541016 121.64354004 35.87839844 122.11328125 36.46875 C122.63422363 37.11602051 123.15516602 37.76329102 123.69189453 38.43017578 C124.22669434 39.11321777 124.76149414 39.79625977 125.3125 40.5 C125.88081543 41.21269043 126.44913086 41.92538086 127.03466797 42.65966797 C131.03493089 47.70042902 134.91439281 52.8243118 138.75390625 57.98828125 C141.33401339 61.44786839 143.93067065 64.89212116 146.5625 68.3125 C147.19696045 69.15675537 147.19696045 69.15675537 147.84423828 70.01806641 C154.19035357 78.20699131 162.6689113 84.1362021 170.90820312 90.28125 C181.90669582 98.57226884 181.90669582 98.57226884 184 104 C184.30361894 106.69700987 184.51142892 109.31458644 184.6328125 112.01953125 C184.69515579 113.18472542 184.69515579 113.18472542 184.75875854 114.37345886 C184.88914581 116.85279146 185.00701033 119.33254985 185.125 121.8125 C185.21146602 123.46944159 185.29869757 125.12634342 185.38671875 126.78320312 C185.5449185 129.84329694 185.70280724 132.90337767 185.84814453 135.96411133 C185.87764191 136.57603836 185.90713928 137.18796539 185.93753052 137.81843567 C186.02513521 140.87777392 186 143.93940772 186 147 C126.93 147 67.86 147 7 147 C7 139.41 7 131.82 7 124 C9.97 123.505 9.97 123.505 13 123 C13 102.87 13 82.74 13 62 C6.565 62.495 6.565 62.495 0 63 C0 42.21 0 21.42 0 0 Z " fill="#E8E3D9" transform="translate(297,365)"/>
<path d="M0 0 C57.09 0 114.18 0 173 0 C173 11.25 173 11.25 172.5 16.125 C172.4071875 17.05570312 172.314375 17.98640625 172.21875 18.9453125 C172.1465625 19.62335938 172.074375 20.30140625 172 21 C171.34 21 170.68 21 170 21 C169.71125 21.639375 169.4225 22.27875 169.125 22.9375 C168 25 168 25 166 26 C162.9397749 26.15744826 159.89840981 26.25874346 156.8359375 26.31640625 C156.03196533 26.33505737 155.22799316 26.3537085 154.3996582 26.3729248 C151.39155239 26.44131015 148.38326267 26.50140287 145.375 26.5625 C135.289375 26.7790625 135.289375 26.7790625 125 27 C125 52.74 125 78.48 125 105 C125.66 104.67 126.32 104.34 127 104 C130.63 104 134.26 104 138 104 C138 124.13 138 144.26 138 165 C136.02 165.33 134.04 165.66 132 166 C132 173.59 132 181.18 132 189 C101.97 189 71.94 189 41 189 C41 181.08 41 173.16 41 165 C39.02 165 37.04 165 35 165 C35 144.87 35 124.74 35 104 C44 104 44 104 49 105 C48.67 78.93 48.34 52.86 48 26 C34.40316246 25.82963679 34.40316246 25.82963679 20.8059082 25.70214844 C19.09583859 25.67277204 17.38579302 25.64194505 15.67578125 25.609375 C14.79450562 25.60824707 13.91322998 25.60711914 13.00524902 25.60595703 C8.82213568 25.50866153 6.57040106 25.35869214 2.95776367 23.08691406 C-3.53366385 16.16725794 0 13.12212072 0 0 Z " fill="#464544" transform="translate(172,323)"/>
<path d="M0 0 C0.92167969 0.45890625 1.84335937 0.9178125 2.79296875 1.390625 C18.57983155 9.80483907 29.00192724 22.99690942 34.4375 40 C38.25607744 53.42495389 38.54298339 67.73741945 34 81 C33.6596875 81.99515625 33.319375 82.9903125 32.96875 84.015625 C25.8147075 102.86749376 11.74998451 114.77800084 -6.19921875 122.95703125 C-19.82027221 128.02930639 -38.42965045 128.63874373 -52.1015625 123.37890625 C-72.75445347 113.55347429 -86.13039204 100.25697333 -93.97265625 78.2734375 C-99.23397356 60.50731487 -96.0816891 41.92902202 -87.37109375 25.875 C-78.64051553 10.90618143 -63.69280104 -0.07890677 -47.16381836 -4.83886719 C-31.24822594 -9.02407147 -14.66218291 -7.79957226 0 0 Z " fill="#3B3B3A" transform="translate(287,185)"/>
<path d="M0 0 C1.1947142 -0.00315216 2.38942841 -0.00630432 3.62034607 -0.009552 C4.92133743 -0.00752777 6.2223288 -0.00550354 7.56274414 -0.00341797 C8.90173866 -0.00409114 10.24073307 -0.00506128 11.57972717 -0.00631714 C14.39007731 -0.00779399 17.20039573 -0.0056403 20.01074219 -0.00097656 C23.61680858 0.00471525 27.22280046 0.00144514 30.8288641 -0.00454903 C33.5954698 -0.00815966 36.36205779 -0.00701364 39.12866402 -0.00442123 C41.10627923 -0.0034275 43.08389512 -0.00647021 45.06150818 -0.009552 C46.25937454 -0.00639984 47.45724091 -0.00324768 48.69140625 0 C50.27906044 0.00119339 50.27906044 0.00119339 51.89878845 0.00241089 C54.41040039 0.12939453 54.41040039 0.12939453 56.41040039 1.12939453 C56.45667292 11.65592271 56.49224366 22.18242683 56.51402473 32.70903587 C56.52447679 37.59658771 56.53866183 42.48407014 56.5612793 47.37158203 C56.58295711 52.08536082 56.5949583 56.79907271 56.60015488 61.51289749 C56.60385976 63.31429727 56.61109414 65.11569325 56.6218605 66.91706467 C56.63630826 69.43372355 56.63838117 71.95010342 56.63745117 74.46679688 C56.64464172 75.21701614 56.65183228 75.96723541 56.65924072 76.7401886 C56.63850471 81.90129021 56.63850471 81.90129021 54.41040039 84.12939453 C51.93675232 84.37663269 51.93675232 84.37663269 48.78320312 84.37231445 C47.60535751 84.37539108 46.4275119 84.37846771 45.213974 84.38163757 C43.93688065 84.37445206 42.65978729 84.36726654 41.34399414 84.35986328 C39.38744652 84.35917595 39.38744652 84.35917595 37.39137268 84.35847473 C34.6298389 84.35690986 31.86843476 84.3486192 29.10693359 84.33520508 C25.56020085 84.31819852 22.01361043 84.3143912 18.4668417 84.31515026 C15.09253997 84.31481364 11.71828532 84.30597991 8.34399414 84.29736328 C7.06487656 84.29625046 5.78575897 84.29513763 4.46788025 84.29399109 C3.2931868 84.28761124 2.11849335 84.28123138 0.90820312 84.2746582 C-0.13167252 84.27084641 -1.17154816 84.26703461 -2.24293518 84.2631073 C-4.58959961 84.12939453 -4.58959961 84.12939453 -5.58959961 83.12939453 C-5.67697606 81.27569842 -5.69658114 79.41871912 -5.68725586 77.56298828 C-5.6840332 76.43828125 -5.68081055 75.31357422 -5.67749023 74.15478516 C-5.66911133 72.97078125 -5.66073242 71.78677734 -5.65209961 70.56689453 C-5.64533203 68.78508789 -5.64533203 68.78508789 -5.63842773 66.96728516 C-5.62659636 64.02127227 -5.61011248 61.07535772 -5.58959961 58.12939453 C-8.88959961 58.12939453 -12.18959961 58.12939453 -15.58959961 58.12939453 C-15.58959961 47.23939453 -15.58959961 36.34939453 -15.58959961 25.12939453 C-12.94959961 25.12939453 -10.30959961 25.12939453 -7.58959961 25.12939453 C-7.60120117 24.23478516 -7.61280273 23.34017578 -7.62475586 22.41845703 C-7.73518433 7.62104131 -7.73518433 7.62104131 -6.58959961 1.12939453 C-4.83651424 -0.62369084 -2.379866 0.00179022 0 0 Z " fill="#3A3B3C" transform="translate(431.589599609375,201.87060546875)"/>
<path d="M0 0 C1.04067123 0.00142502 2.08134247 0.00285004 3.15354919 0.00431824 C4.33139481 0.00124161 5.50924042 -0.00183502 6.72277832 -0.00500488 C7.99987167 0.00218063 9.27696503 0.00936615 10.59275818 0.01676941 C12.5493058 0.01745674 12.5493058 0.01745674 14.54537964 0.01815796 C17.30691341 0.01972283 20.06831756 0.02801349 22.82981873 0.04142761 C26.37655147 0.05843417 29.92314188 0.06224149 33.46991062 0.06148243 C36.84421235 0.06181905 40.218467 0.07065278 43.59275818 0.07926941 C44.87187576 0.08038223 46.15099335 0.08149506 47.46887207 0.0826416 C48.64356552 0.08902145 49.81825897 0.09540131 51.02854919 0.10197449 C52.06842484 0.10578629 53.10830048 0.10959808 54.1796875 0.11352539 C56.52635193 0.24723816 56.52635193 0.24723816 57.52635193 1.24723816 C58.5201344 6.59142502 58.64927034 11.76102341 58.58885193 17.18473816 C58.58434021 17.96397644 58.57982849 18.74321472 58.57518005 19.54606628 C58.56352101 21.44649084 58.5455907 23.34687522 58.52635193 25.24723816 C61.16635193 25.24723816 63.80635193 25.24723816 66.52635193 25.24723816 C66.52635193 36.13723816 66.52635193 47.02723816 66.52635193 58.24723816 C63.55635193 58.24723816 60.58635193 58.24723816 57.52635193 58.24723816 C57.53158875 58.99932556 57.53682556 59.75141296 57.54222107 60.52629089 C57.5629242 63.91243158 57.57599069 67.298559 57.58885193 70.68473816 C57.59723083 71.86874207 57.60560974 73.05274597 57.61424255 74.27262878 C57.61746521 75.39733582 57.62068787 76.52204285 57.62400818 77.68083191 C57.629245 78.72295837 57.63448181 79.76508484 57.63987732 80.83879089 C57.52635193 83.24723816 57.52635193 83.24723816 56.52635193 84.24723816 C54.69608021 84.35152691 52.86177737 84.3857819 51.02854919 84.39250183 C49.26650902 84.40207161 49.26650902 84.40207161 47.46887207 84.41183472 C45.55019569 84.41350395 45.55019569 84.41350395 43.59275818 84.41520691 C42.28934982 84.41853531 40.98594147 84.42186371 39.64303589 84.42529297 C36.87976758 84.43129016 34.11653058 84.43313228 31.35325623 84.43254089 C27.8076672 84.43243925 24.26227835 84.44609046 20.71673679 84.4633131 C17.34207394 84.47708829 13.96744883 84.47652139 10.59275818 84.47770691 C9.31566483 84.48489243 8.03857147 84.49207794 6.72277832 84.4994812 C4.9560099 84.49486626 4.9560099 84.49486626 3.15354919 84.49015808 C2.11287796 84.4915831 1.07220673 84.49300812 0 84.49447632 C-2.47364807 84.24723816 -2.47364807 84.24723816 -4.47364807 82.24723816 C-4.67196323 79.69835692 -4.74643069 77.25813595 -4.73243713 74.70817566 C-4.73594177 73.93081055 -4.73944641 73.15344543 -4.74305725 72.3525238 C-4.75188013 69.77567184 -4.74602353 67.19909306 -4.73927307 64.62223816 C-4.74061956 62.83626757 -4.74255996 61.05029734 -4.74507141 59.264328 C-4.74802343 55.51836157 -4.74372256 51.77249041 -4.73439026 48.02653503 C-4.72299567 43.21760983 -4.72955473 38.40890785 -4.74153519 33.59999084 C-4.74875171 29.91120208 -4.74646682 26.22246649 -4.7412796 22.53367615 C-4.73994253 20.76019769 -4.74159283 18.98671445 -4.74623871 17.21324158 C-4.75130056 14.73746391 -4.7435987 12.26205106 -4.73243713 9.78630066 C-4.7364856 9.04857422 -4.74053406 8.31084778 -4.7447052 7.55076599 C-4.6853543 0.46829554 -4.6853543 0.46829554 0 0 Z " fill="#393B3C" transform="translate(34.47364807128906,201.7527618408203)"/>
<path d="M0 0 C0.92167969 0.45890625 1.84335937 0.9178125 2.79296875 1.390625 C18.57983155 9.80483907 29.00192724 22.99690942 34.4375 40 C38.25607744 53.42495389 38.54298339 67.73741945 34 81 C33.6596875 81.99515625 33.319375 82.9903125 32.96875 84.015625 C25.8147075 102.86749376 11.74998451 114.77800084 -6.19921875 122.95703125 C-19.82027221 128.02930639 -38.42965045 128.63874373 -52.1015625 123.37890625 C-72.75445347 113.55347429 -86.13039204 100.25697333 -93.97265625 78.2734375 C-99.23397356 60.50731487 -96.0816891 41.92902202 -87.37109375 25.875 C-78.64051553 10.90618143 -63.69280104 -0.07890677 -47.16381836 -4.83886719 C-31.24822594 -9.02407147 -14.66218291 -7.79957226 0 0 Z M-67 22 C-69.88942432 25.18709148 -72.49504915 28.50445494 -75 32 C-75.4228125 32.58523437 -75.845625 33.17046875 -76.28125 33.7734375 C-83.07107184 44.31823657 -83.31387469 58.30194588 -81.49609375 70.3359375 C-79.66654369 78.46959432 -76.47114703 86.5975939 -71 93 C-70.34 93 -69.68 93 -69 93 C-68.75378906 93.5775 -68.50757813 94.155 -68.25390625 94.75 C-64.21314595 102.00071007 -56.57209731 106.28547455 -49 109 C-47.906875 109.4125 -46.81375 109.825 -45.6875 110.25 C-42.82290068 111.17919931 -42.82290068 111.17919931 -39 111 C-39 111.66 -39 112.32 -39 113 C-20.58944772 114.16040672 -20.58944772 114.16040672 -4 108 C-3.67 107.34 -3.34 106.68 -3 106 C-1.29023447 105.01359681 0.42143021 104.03011373 2.1484375 103.07421875 C5.93108462 100.879645 8.59899825 99.20300525 10 95 C11.1446875 93.9171875 11.1446875 93.9171875 12.3125 92.8125 C15.5439697 89.43072938 17.14746214 86.24386162 19 82 C19.37511719 81.28972656 19.75023437 80.57945312 20.13671875 79.84765625 C23.26306387 73.07939331 23.39413146 66.45713663 23.4375 59.125 C23.44749023 58.1136499 23.45748047 57.1022998 23.46777344 56.06030273 C23.40664348 50.8245223 23.25165263 47.31598223 20 43 C19.3125 39.6875 19.3125 39.6875 19 37 C18.34 37 17.68 37 17 37 C16.9071875 36.27554688 16.814375 35.55109375 16.71875 34.8046875 C14.55622024 26.36612029 6.06530422 19.54752705 -1 15 C-21.84378116 2.82965486 -49.18468648 5.40447371 -67 22 Z " fill="#0C8CEF" transform="translate(287,185)"/>
<path d="M0 0 C57.09 0 114.18 0 173 0 C173 11.25 173 11.25 172.5 16.125 C172.4071875 17.05570312 172.314375 17.98640625 172.21875 18.9453125 C172.1465625 19.62335938 172.074375 20.30140625 172 21 C171.34 21 170.68 21 170 21 C169.71125 21.639375 169.4225 22.27875 169.125 22.9375 C168 25 168 25 166 26 C160.51325137 26.41730979 155.0003541 26.48876891 149.5 26.625 C148.62982239 26.64779022 147.75964478 26.67058044 146.86309814 26.69406128 C114.59070546 27.48933264 82.27111938 26.56713014 50 26 C50 30.95 50 35.9 50 41 C49.67 41 49.34 41 49 41 C48.505 33.575 48.505 33.575 48 26 C46.75387939 25.9906543 45.50775879 25.98130859 44.22387695 25.97167969 C39.59233092 25.93175135 34.96144713 25.86598437 30.33032227 25.79248047 C28.32747924 25.76428739 26.3245253 25.74306458 24.3215332 25.72900391 C21.43903893 25.70755146 18.55787591 25.66088944 15.67578125 25.609375 C14.78288895 25.60814636 13.88999664 25.60691772 12.970047 25.60565186 C8.80101756 25.50784325 6.55922446 25.35166382 2.95776367 23.08691406 C-3.53366385 16.16725794 0 13.12212072 0 0 Z " fill="#585A5B" transform="translate(172,323)"/>
<path d="M0 0 C0.71220703 -0.00386719 1.42441406 -0.00773438 2.15820312 -0.01171875 C10.18969577 0.0028707 16.89437525 0.7194845 24 4.6875 C24.64960693 5.04392578 25.29921387 5.40035156 25.96850586 5.76757812 C34.12190528 10.38780396 42.0577518 16.71613669 46.5625 25.125 C46.5625 26.445 46.5625 27.765 46.5625 29.125 C47.2225 29.125 47.8825 29.125 48.5625 29.125 C49.01822917 31.11067708 49.47395833 33.09635417 49.9296875 35.08203125 C50.54257723 37.40242974 50.54257723 37.40242974 52.5625 40.125 C54.81295767 55.47414425 52.53377877 70.62376702 43.8125 83.5625 C41.5625 86.125 41.5625 86.125 39.5625 87.125 C39.170625 87.8675 38.77875 88.61 38.375 89.375 C35.48494853 93.75990569 31.52418664 96.47110445 26.5625 98.125 C26.10875 98.57875 25.655 99.0325 25.1875 99.5 C18.38739957 106.30010043 8.9593144 105.15222124 0.00708008 105.1887207 C-3.14147702 105.18696936 -6.28914881 105.16095833 -9.4375 105.125 C-9.4375 104.465 -9.4375 103.805 -9.4375 103.125 C-10.38625 103.0425 -11.335 102.96 -12.3125 102.875 C-23.08037074 101.25006981 -32.2841838 95.2443589 -39.4375 87.125 C-39.4375 86.465 -39.4375 85.805 -39.4375 85.125 C-40.0975 85.125 -40.7575 85.125 -41.4375 85.125 C-51.67084426 73.28355878 -53.39877823 58.16292731 -52.4375 43.125 C-50.71821102 29.70192728 -42.71037654 17.83921864 -32.28125 9.375 C-22.23090195 2.29729011 -12.14439397 -0.06558629 0 0 Z M-30.4375 27.125 C-38.22079283 37.84721254 -39.79129987 48.18036888 -38.4375 61.125 C-36.13913627 71.09945232 -30.1009464 79.24195425 -21.69140625 85.0078125 C-11.69288575 90.74898793 -1.76976915 92.86653811 9.68359375 90.47265625 C16.80533474 88.35881466 22.15422853 85.1885211 27.5625 80.125 C28.40941406 79.33996094 28.40941406 79.33996094 29.2734375 78.5390625 C36.48231051 71.03744337 38.99770553 62.0383261 39.0625 51.875 C39.06878418 51.13080811 39.07506836 50.38661621 39.08154297 49.61987305 C38.8220639 38.27963025 32.95601503 28.70065359 24.94921875 20.953125 C7.33704187 7.46294696 -16.17366733 11.08453337 -30.4375 27.125 Z " fill="#55595B" transform="translate(257.4375,192.875)"/>
<path d="M0 0 C1.21543488 0.00586624 2.43086975 0.01173248 3.68313599 0.01777649 C4.35519577 0.01558609 5.02725555 0.01339569 5.71968079 0.01113892 C7.94644099 0.00882418 10.17188327 0.03512775 12.39846802 0.06196594 C13.95487042 0.06689403 15.51127876 0.07019018 17.06768799 0.07192993 C20.33797012 0.07957981 23.60781618 0.10015032 26.87796021 0.13105774 C31.03443314 0.17030497 35.19062071 0.18861591 39.34725761 0.19836712 C43.34353182 0.20844399 47.33973961 0.22824946 51.33596802 0.24946594 C52.08295834 0.25286169 52.82994865 0.25625744 53.59957504 0.25975609 C58.41219375 0.28608507 63.22015637 0.36241539 68.03128052 0.48774719 C69.29248718 0.51994354 70.55369385 0.55213989 71.8531189 0.58531189 C73.60250763 0.66813919 73.60250763 0.66813919 75.38723755 0.75263977 C76.40834625 0.7968959 77.42945496 0.84115204 78.48150635 0.88674927 C81.03128052 1.48774719 81.03128052 1.48774719 84.03128052 5.48774719 C84.03128052 16.37774719 84.03128052 27.26774719 84.03128052 38.48774719 C54.00128052 38.48774719 23.97128052 38.48774719 -6.96871948 38.48774719 C-6.96871948 1.14492911 -6.96871948 1.14492911 0 0 Z " fill="#3B3B3A" transform="translate(219.96871948242188,473.5122528076172)"/>
<path d="M0 0 C7.59 0 15.18 0 23 0 C23 20.79 23 41.58 23 63 C9 62 9 62 5 59 C4.0407909 56.44899994 3.49937159 53.93468456 2.90625 51.27734375 C2.21607165 48.8780836 2.21607165 48.8780836 0.15625 47.87890625 C-0.5553125 47.58886719 -1.266875 47.29882812 -2 47 C-4.11035156 45.96923828 -4.11035156 45.96923828 -6 44 C-6.35542824 41.07497848 -6.46653426 38.53214033 -6.390625 35.61328125 C-6.38496521 34.79627243 -6.37930542 33.97926361 -6.37347412 33.13749695 C-6.35108697 30.52856797 -6.30088846 27.92101364 -6.25 25.3125 C-6.22993792 23.54363963 -6.21168664 21.77475773 -6.1953125 20.00585938 C-6.1512148 15.67004344 -6.08217294 11.33525475 -6 7 C-5.34 7 -4.68 7 -4 7 C-3.71125 6.401875 -3.4225 5.80375 -3.125 5.1875 C-2 3 -2 3 0 0 Z " fill="#FCE555" transform="translate(198,365)"/>
<path d="M0 0 C7.26 0 14.52 0 22 0 C24 2 24 2 24.125 4.625 C24.08375 5.40875 24.0425 6.1925 24 7 C24.66 7 25.32 7 26 7 C26.06058594 7.75925781 26.12117188 8.51851563 26.18359375 9.30078125 C26.30927734 10.79158203 26.30927734 10.79158203 26.4375 12.3125 C26.51871094 13.29863281 26.59992188 14.28476562 26.68359375 15.30078125 C26.91812559 18.09375599 26.91812559 18.09375599 28 21 C28.38608705 24.9310325 28.46236347 28.86525757 28.5625 32.8125 C28.62501953 33.89337891 28.68753906 34.97425781 28.75195312 36.08789062 C28.91114825 43.94634079 28.91114825 43.94634079 26.26269531 47.0090332 C24.23917053 48.50828946 22.1773125 49.74134704 20 51 C16.84279457 54.40645848 15.78202791 56.54493022 14 61 C9.38 61.66 4.76 62.32 0 63 C0 42.21 0 21.42 0 0 Z " fill="#FDE555" transform="translate(297,365)"/>
<path d="M0 0 C4.30188992 2.00539229 7.07645185 4.24021438 9.703125 8.28125 C10.115625 8.879375 10.528125 9.4775 10.953125 10.09375 C12.85738414 15.64783914 11.95595237 21.16066446 9.75 26.45703125 C7.51859132 30.34534413 4.21649038 32.4449165 0.328125 34.59375 C-6.22259707 36.3094153 -11.43725796 35.64510423 -17.296875 32.28125 C-22.07835957 27.62899474 -24.4498772 24.28052535 -24.609375 17.53125 C-24.55237097 12.22987485 -24.00785558 9.28520273 -20.296875 5.28125 C-14.09593986 -0.50839863 -8.41704048 -2.63390383 0 0 Z " fill="#F9E357" transform="translate(264.296875,227.71875)"/>
<path d="M0 0 C3.3 0 6.6 0 10 0 C10.33 8.25 10.66 16.5 11 25 C30.8 25 50.6 25 71 25 C71 25.66 71 26.32 71 27 C50.87 27 30.74 27 10 27 C6.28403487 19.56806974 6.84341407 11.17726509 7 3 C5.35 3 3.7 3 2 3 C2.00745743 3.60197708 2.01491486 4.20395416 2.02259827 4.82417297 C2.09184639 11.13608592 2.09733223 17.44585329 2.06713867 23.75805664 C2.06407188 26.10802561 2.07682268 28.45807401 2.10620117 30.80786133 C2.36347667 52.8540324 2.36347667 52.8540324 -3.44140625 60.04296875 C-7.59519828 64.06748907 -9.82101506 65.11850023 -15.55126953 65.20532227 C-16.71232208 65.22526749 -17.87337463 65.24521271 -19.0696106 65.26576233 C-20.95714554 65.29083107 -20.95714554 65.29083107 -22.8828125 65.31640625 C-24.16735321 65.33718735 -25.45189392 65.35796844 -26.77536011 65.37937927 C-30.19149359 65.43459049 -33.60768745 65.48400388 -37.02392578 65.53222656 C-40.50949481 65.58244857 -43.99497609 65.63813097 -47.48046875 65.69335938 C-54.32023642 65.80092928 -61.16008334 65.90237684 -68 66 C-68.04898438 67.03640625 -68.09796875 68.0728125 -68.1484375 69.140625 C-68.22349597 70.51044208 -68.29904247 71.88023248 -68.375 73.25 C-68.42140625 74.27287109 -68.42140625 74.27287109 -68.46875 75.31640625 C-68.68259374 78.98739038 -69.01077055 81.86251616 -71 85 C-71.66 85 -72.32 85 -73 85 C-73.28875 85.61875 -73.5775 86.2375 -73.875 86.875 C-75 89 -75 89 -77 91 C-79.9366021 91.2459409 -82.78562112 91.37375252 -85.7265625 91.4140625 C-86.58937836 91.43342865 -87.45219421 91.4527948 -88.34115601 91.4727478 C-91.10233616 91.53262204 -93.86355784 91.57895998 -96.625 91.625 C-98.49481005 91.66317259 -100.36460238 91.70222389 -102.234375 91.7421875 C-106.82277309 91.83832992 -111.41125351 91.92233166 -116 92 C-116.33 95.63 -116.66 99.26 -117 103 C-115.59105469 102.98839844 -114.18210937 102.97679687 -112.73046875 102.96484375 C-110.88281382 102.95546479 -109.03515747 102.9463647 -107.1875 102.9375 C-106.25873047 102.92912109 -105.32996094 102.92074219 -104.37304688 102.91210938 C-103.48037109 102.90888672 -102.58769531 102.90566406 -101.66796875 102.90234375 C-100.84578857 102.89710693 -100.0236084 102.89187012 -99.17651367 102.88647461 C-97 103 -97 103 -94 104 C-94 104.99 -94 105.98 -94 107 C-93.34 107.33 -92.68 107.66 -92 108 C-90.02128228 109.90261319 -89.0672665 111.28203307 -88.80859375 114.04296875 C-88.81211003 116.02966747 -88.90078884 118.01577689 -89 120 C-88.46375 120.268125 -87.9275 120.53625 -87.375 120.8125 C-86.199375 121.4003125 -86.199375 121.4003125 -85 122 C-83.948125 122.515625 -82.89625 123.03125 -81.8125 123.5625 C-79 125 -79 125 -78 126 C-70.3794529 127.88836424 -62.75446864 128.35505941 -54.9375 128.5625 C-52.90482468 128.62224718 -50.87225776 128.68584774 -48.83984375 128.75390625 C-47.51521118 128.78979858 -47.51521118 128.78979858 -46.16381836 128.82641602 C-44 129 -44 129 -42 130 C-40.606355 130.12833591 -39.20744415 130.20211592 -37.80859375 130.24609375 C-36.95386475 130.27759521 -36.09913574 130.30909668 -35.21850586 130.34155273 C-34.30077393 130.37321533 -33.38304199 130.40487793 -32.4375 130.4375 C-25.40974202 130.72833297 -18.42723986 131.13971169 -11.4375 131.9375 C-10.74261475 132.01218506 -10.04772949 132.08687012 -9.33178711 132.16381836 C-4.03426261 132.80828124 -0.63665907 133.81893942 2.75 138 C5 141 5 141 5 143 C5.66 143 6.32 143 7 143 C8.62109375 145.046875 8.62109375 145.046875 10.4375 147.75 C12.99517049 151.53812241 12.99517049 151.53812241 15.72265625 155.203125 C17 157 17 157 17 159 C17.66 159 18.32 159 19 159 C20.31476977 160.63753983 21.55210408 162.33762273 22.75 164.0625 C26.62141019 169.51894408 30.57848371 174.64220782 35.375 179.3125 C37 181 37 181 37 183 C37.763125 183.28875 38.52625 183.5775 39.3125 183.875 C42 185 42 185 45 187 C45 187.66 45 188.32 45 189 C45.763125 189.28875 46.52625 189.5775 47.3125 189.875 C50 191 50 191 53 193 C53 193.66 53 194.32 53 195 C53.66 195 54.32 195 55 195 C55 195.66 55 196.32 55 197 C55.721875 197.04125 56.44375 197.0825 57.1875 197.125 C61.20024334 198.37340904 62.59881991 200.62536853 65 204 C66.78316773 207.71703663 67.27698069 210.76066907 67.37890625 214.8671875 C67.42930054 216.55751099 67.42930054 216.55751099 67.48071289 218.28198242 C67.50770264 219.46767822 67.53469238 220.65337402 67.5625 221.875 C67.63373865 224.30603934 67.70664528 226.73703039 67.78125 229.16796875 C67.81605469 230.34020996 67.85085938 231.51245117 67.88671875 232.72021484 C68.09767376 238.82790809 68.54134014 244.90637614 69 251 C75.27 251 81.54 251 88 251 C88 251.33 88 251.66 88 252 C81.07 252 74.14 252 67 252 C65.87608688 244.13260817 65.87608688 244.13260817 65.75048828 240.99584961 C65.72020538 240.29499741 65.68992249 239.5941452 65.65872192 238.87205505 C65.61495926 237.77329796 65.61495926 237.77329796 65.5703125 236.65234375 C65.49670578 235.06182052 65.42246806 233.47132638 65.34765625 231.88085938 C65.23408822 229.40374882 65.12457083 226.92672537 65.02587891 224.44897461 C64.92799076 222.03686753 64.8129984 219.62605553 64.6953125 217.21484375 C64.67018585 216.48031479 64.6450592 215.74578583 64.61917114 214.98899841 C64.33037573 209.48181376 63.21760201 205.22412711 59.25756836 201.25244141 C58.62471924 200.79015137 57.99187012 200.32786133 57.33984375 199.8515625 C56.63335693 199.32530273 55.92687012 198.79904297 55.19897461 198.25683594 C54.45268799 197.71833008 53.70640137 197.17982422 52.9375 196.625 C51.39543401 195.47709875 49.85376542 194.32866344 48.3125 193.1796875 C47.56871094 192.63151367 46.82492187 192.08333984 46.05859375 191.51855469 C34.22570965 182.789838 25.80042732 172.8835255 17.1015625 161.15234375 C14.14814374 157.17887244 11.1246249 153.26512431 8.0625 149.375 C7.62639404 148.81981689 7.19028809 148.26463379 6.7409668 147.69262695 C5.50148744 146.1224607 4.25086499 144.56111112 3 143 C2.5757373 142.4524707 2.15147461 141.90494141 1.71435547 141.34082031 C-1.51102362 137.27558842 -3.69724026 135.34143885 -8.85687256 134.57640076 C-9.9608136 134.49503372 -11.06475464 134.41366669 -12.20214844 134.32983398 C-13.45735291 134.23310898 -14.71255737 134.13638397 -16.00579834 134.03672791 C-17.373649 133.93973377 -18.74150811 133.84285869 -20.109375 133.74609375 C-21.51944846 133.64003638 -22.92946178 133.53317675 -24.3394165 133.42555237 C-28.05120238 133.14412875 -31.76363548 132.87244768 -35.47631836 132.60314941 C-41.40397293 132.17128926 -47.33044871 131.72344539 -53.25708771 131.27791023 C-55.31735606 131.12422808 -57.37784688 130.97392123 -59.43841553 130.82432556 C-77.61549272 129.48273915 -77.61549272 129.48273915 -84 125 C-86.31903172 124.14859079 -88.59135344 123.57807517 -91 123 C-91.01417969 122.27554688 -91.02835937 121.55109375 -91.04296875 120.8046875 C-91.09066406 119.83789062 -91.13835937 118.87109375 -91.1875 117.875 C-91.23970703 116.44800781 -91.23970703 116.44800781 -91.29296875 114.9921875 C-92.23387625 111.01022537 -93.56031866 108.23668994 -97 106 C-100.93833494 105.13131027 -104.79122317 105.11517403 -108.8125 105.125 C-109.88693359 105.104375 -110.96136719 105.08375 -112.06835938 105.0625 C-114.71301554 105.01548389 -117.3550121 104.9955509 -120 105 C-120.02685095 102.52076199 -120.04676547 100.0418116 -120.0625 97.5625 C-120.07506836 96.50192383 -120.07506836 96.50192383 -120.08789062 95.41992188 C-120.09653588 93.61306441 -120.05220011 91.80612397 -120 90 C-117.87000341 87.87000341 -113.03012658 88.83822057 -110.07421875 88.82421875 C-108.22720218 88.80101765 -106.38019694 88.7769002 -104.53320312 88.75195312 C-101.61003078 88.71683478 -98.68727361 88.68749896 -95.76391602 88.67407227 C-92.95016678 88.65860557 -90.1376444 88.61839914 -87.32421875 88.57421875 C-86.01465462 88.57708138 -86.01465462 88.57708138 -84.67863464 88.58000183 C-79.68948619 88.54080298 -79.68948619 88.54080298 -75.54223633 85.96411133 C-75.03329834 85.31595459 -74.52436035 84.66779785 -74 84 C-73.34 84 -72.68 84 -72 84 C-72.01160156 83.32195312 -72.02320313 82.64390625 -72.03515625 81.9453125 C-72.04417969 81.01460938 -72.05320312 80.08390625 -72.0625 79.125 C-72.07410156 78.22007812 -72.08570313 77.31515625 -72.09765625 76.3828125 C-71.96849767 71.90875913 -71.44537042 67.45370416 -71 63 C-50.54 63 -30.08 63 -9 63 C-8.34 61.68 -7.68 60.36 -7 59 C-5.98699598 57.8216967 -4.96138501 56.65414776 -3.92529297 55.49609375 C0.01563832 50.30120936 -0.14172901 45.39235396 -0.1953125 39.0625 C-0.18160614 37.94182129 -0.16789978 36.82114258 -0.15377808 35.66650391 C-0.11658739 32.11059016 -0.12018603 28.55608007 -0.125 25 C-0.10686578 22.57940536 -0.08606083 20.15882915 -0.0625 17.73828125 C-0.01075044 11.82528675 0.00443744 5.91320848 0 0 Z " fill="#195BCE" transform="translate(416,260)"/>
<path d="M0 0 C2.97 0 5.94 0 9 0 C8.99254257 0.61450516 8.98508514 1.22901031 8.97740173 1.86213684 C8.90816853 8.30379818 8.90266266 14.74335699 8.93286133 21.18530273 C8.93592863 23.58377362 8.92317238 25.98232226 8.89379883 28.38061523 C8.85419346 31.8450048 8.87298367 35.30511947 8.90234375 38.76953125 C8.87776596 39.82831985 8.85318817 40.88710846 8.8278656 41.97798157 C8.96980892 49.46542714 11.08288074 54.34078265 16.1559906 59.89448547 C21.45134311 63.81481064 26.84573005 63.46578173 33.22265625 63.29296875 C34.57744337 63.29489427 35.93223142 63.30167609 37.28697205 63.31306458 C40.82458013 63.32994462 44.3582913 63.28160282 47.89526367 63.21887207 C51.51543438 63.16646789 55.13539263 63.17682718 58.75585938 63.18164062 C65.83844878 63.18193874 72.91810469 63.10741186 80 63 C80.33 69.93 80.66 76.86 81 84 C82.32 84.66 83.64 85.32 85 86 C85.33 86.33 85.66 86.66 86 87 C89.08918267 87.14804877 92.15879144 87.23515543 95.25 87.28125 C96.17844727 87.29965942 97.10689453 87.31806885 98.06347656 87.33703613 C101.04225125 87.39598583 104.02108393 87.448722 107 87.5 C110.91679492 87.56742231 114.8333962 87.64109086 118.75 87.71875 C119.66040039 87.73232544 120.57080078 87.74590088 121.50878906 87.7598877 C127.88719819 87.88719819 127.88719819 87.88719819 129 89 C129.07325436 91.6986905 129.09222351 94.36502556 129.0625 97.0625 C129.041875 99.681875 129.02125 102.30125 129 105 C121.41 105 113.82 105 106 105 C105.01 106.98 105.01 106.98 104 109 C103.34 109.99 102.68 110.98 102 112 C101.34 112 100.68 112 100 112 C100 115.63 100 119.26 100 123 C97.49348958 123.9765625 94.98697917 124.953125 92.48046875 125.9296875 C89.82288409 126.98832155 89.82288409 126.98832155 87 129 C84.32175393 129.43516111 81.71622307 129.75971412 79.01953125 130.0078125 C78.19242142 130.08943634 77.36531158 130.17106018 76.51313782 130.25515747 C69.27192033 130.94179936 62.01858315 131.44174558 54.76171875 131.9296875 C53.04337326 132.04633759 53.04337326 132.04633759 51.29031372 132.16534424 C46.5450678 132.48601304 41.80004299 132.80639555 37.05297852 133.09912109 C33.53793332 133.31808411 30.02501472 133.55943789 26.51171875 133.8046875 C25.44298019 133.86526337 24.37424164 133.92583923 23.27311707 133.98825073 C15.94064766 134.52627329 11.86377017 135.69147765 6.9375 141.3828125 C6.298125 142.28773438 5.65875 143.19265625 5 144.125 C3.85144531 145.71054687 3.85144531 145.71054687 2.6796875 147.328125 C2.2578418 147.91142578 1.83599609 148.49472656 1.40136719 149.09570312 C-1.87031978 153.54154952 -5.29959753 157.86978983 -8.70947266 162.20996094 C-11.46022744 165.71494305 -14.18484938 169.2224544 -16.78125 172.84375 C-23.10961032 181.54554137 -30.32571717 187.47884741 -39.09912109 193.64794922 C-41.90601248 195.64442552 -44.61369712 197.73383056 -47.3125 199.875 C-48.15425781 200.53242188 -48.99601562 201.18984375 -49.86328125 201.8671875 C-55.14097172 207.13522954 -55.50578577 212.71639845 -55.73046875 219.7734375 C-55.770616 220.6971817 -55.81076324 221.6209259 -55.85212708 222.57266235 C-55.97670637 225.50641406 -56.0823697 228.44049341 -56.1875 231.375 C-56.26893236 233.37114513 -56.35160122 235.36724023 -56.43554688 237.36328125 C-56.63802008 242.24172437 -56.8235389 247.12054954 -57 252 C-57.66 252 -58.32 252 -59 252 C-59.02929981 248.16668301 -59.04689897 244.33339529 -59.0625 240.5 C-59.07087891 239.42234375 -59.07925781 238.3446875 -59.08789062 237.234375 C-59.10576147 231.37273892 -58.83532765 225.79815664 -58 220 C-57.794325 217.5014296 -57.60586089 215.0013618 -57.4375 212.5 C-57.35371094 211.2728125 -57.26992188 210.045625 -57.18359375 208.78125 C-57.12300781 207.8634375 -57.06242187 206.945625 -57 206 C-56.34 206 -55.68 206 -55 206 C-55 205.01 -55 204.02 -55 203 C-54.34 203 -53.68 203 -53 203 C-52.61714844 202.1032959 -52.61714844 202.1032959 -52.2265625 201.18847656 C-50.86686431 198.76245456 -49.5940654 197.63651781 -47.375 195.984375 C-46.66859375 195.45585937 -45.9621875 194.92734375 -45.234375 194.3828125 C-44.49703125 193.84398437 -43.7596875 193.30515625 -43 192.75 C-42.26265625 192.19570313 -41.5253125 191.64140625 -40.765625 191.0703125 C-35.27170567 187 -35.27170567 187 -33 187 C-32.67 186.01 -32.34 185.02 -32 184 C-30.66666667 183.66666667 -29.33333333 183.33333333 -28 183 C-27.67 182.01 -27.34 181.02 -27 180 C-25.3540349 178.31288577 -23.68762851 176.6454378 -22 175 C-21.67 174.34 -21.34 173.68 -21 173 C-20.34 173 -19.68 173 -19 173 C-19 172.01 -19 171.02 -19 170 C-18.34 170 -17.68 170 -17 170 C-17 169.34 -17 168.68 -17 168 C-16.34 168 -15.68 168 -15 168 C-14.7215625 167.01 -14.7215625 167.01 -14.4375 166 C-12.77195186 162.52407345 -10.64416806 160.21660893 -8.0703125 157.37890625 C-3.32471198 151.92594263 1.13947537 146.06123434 4.89453125 139.8828125 C8.03572214 135.58188693 11.12531444 133.44877496 16.3125 132.20703125 C17.529375 132.07683594 18.74625 131.94664062 20 131.8125 C20.67135986 131.73845947 21.34271973 131.66441895 22.03442383 131.58813477 C29.18346882 130.86109962 36.36934395 130.58303512 43.54882812 130.34106445 C44.44408203 130.30972412 45.33933594 130.27838379 46.26171875 130.24609375 C47.05537842 130.22216553 47.84903809 130.1982373 48.66674805 130.17358398 C51.17524103 129.98696282 53.53581481 129.49608289 56 129 C57.48992955 128.88397153 58.98289902 128.80209418 60.4765625 128.75390625 C61.30760498 128.72240479 62.13864746 128.69090332 62.99487305 128.65844727 C63.86281494 128.62678467 64.73075684 128.59512207 65.625 128.5625 C76.46082879 128.25501254 76.46082879 128.25501254 87 126 C87.33 125.34 87.66 124.68 88 124 C89.7421875 123.1484375 89.7421875 123.1484375 91.875 122.375 C92.92300781 121.98441406 92.92300781 121.98441406 93.9921875 121.5859375 C96 121 96 121 99 121 C98.95359375 120.34773438 98.9071875 119.69546875 98.859375 119.0234375 C98.61493999 113.10461838 98.93021552 109.65118227 103 105 C106.25389988 102.83073341 107.13395957 102.75919951 110.88671875 102.8046875 C111.82451172 102.81113281 112.76230469 102.81757813 113.72851562 102.82421875 C115.19321289 102.84935547 115.19321289 102.84935547 116.6875 102.875 C118.16959961 102.88853516 118.16959961 102.88853516 119.68164062 102.90234375 C122.12119706 102.92591434 124.56062901 102.96178531 127 103 C127 99.04 127 95.08 127 91 C125.82493896 91.0314209 124.64987793 91.0628418 123.43920898 91.09521484 C119.05798013 91.20424027 114.67686984 91.2728502 110.29467773 91.32958984 C108.40221967 91.35966736 106.50989991 91.40054133 104.61791992 91.45263672 C101.88946343 91.52585497 99.16285717 91.55954542 96.43359375 91.5859375 C95.59477158 91.61690521 94.7559494 91.64787292 93.89170837 91.67977905 C88.24164845 91.68297851 85.3866329 90.39482708 81.29725647 86.48721313 C79.05668335 83.91855393 78.87899757 82.1823446 78.90234375 78.8671875 C78.90556641 78.06152344 78.90878906 77.25585938 78.91210938 76.42578125 C78.92048828 75.58402344 78.92886719 74.74226563 78.9375 73.875 C78.94201172 73.02550781 78.94652344 72.17601562 78.95117188 71.30078125 C78.96297126 69.20049091 78.98090694 67.1002367 79 65 C77.8824659 65.00333092 77.8824659 65.00333092 76.74235535 65.00672913 C69.72369072 65.02676019 62.70503599 65.04198853 55.68635082 65.05181217 C52.07791615 65.05703236 48.46950508 65.06411436 44.86108398 65.07543945 C41.37923767 65.086299 37.89741408 65.09228336 34.41555214 65.09487724 C32.43964005 65.0976261 30.4637371 65.10543327 28.48783875 65.11329651 C27.28682022 65.11337204 26.0858017 65.11344757 24.84838867 65.11352539 C23.78915695 65.115746 22.72992523 65.11796661 21.63859558 65.12025452 C19 65 19 65 16 64 C14.46484375 62.0390625 14.46484375 62.0390625 12.9375 59.625 C12.43089844 58.83351563 11.92429687 58.04203125 11.40234375 57.2265625 C10.93957031 56.49179687 10.47679688 55.75703125 10 55 C9.34 54.01 8.68 53.02 8 52 C7.75949097 49.70307922 7.75949097 49.70307922 7.77294922 46.9777832 C7.77310028 45.95695145 7.77325134 44.93611969 7.77340698 43.88435364 C7.78889084 42.23423531 7.78889084 42.23423531 7.8046875 40.55078125 C7.8075174 39.4230278 7.81034729 38.29527435 7.81326294 37.13334656 C7.82447084 33.52629042 7.84957677 29.91948127 7.875 26.3125 C7.885029 23.86914421 7.89415499 21.42578453 7.90234375 18.98242188 C7.92441217 12.98819677 7.95789583 6.99411603 8 1 C5.69 1 3.38 1 1 1 C1.00523682 1.7520874 1.01047363 2.5041748 1.01586914 3.27905273 C1.03657227 6.66519342 1.04963877 10.05132084 1.0625 13.4375 C1.07087891 14.62150391 1.07925781 15.80550781 1.08789062 17.02539062 C1.09111328 18.15009766 1.09433594 19.27480469 1.09765625 20.43359375 C1.10289307 21.47572021 1.10812988 22.51784668 1.11352539 23.59155273 C1 26 1 26 0 27 C-1.8718094 27.09386381 -3.7471806 27.11743804 -5.62133789 27.11352539 C-6.82250748 27.11344986 -8.02367706 27.11337433 -9.26124573 27.11329651 C-10.5685112 27.10813522 -11.87577667 27.10297394 -13.22265625 27.09765625 C-14.56644132 27.09579198 -15.91022707 27.09436812 -17.25401306 27.09336853 C-20.79682277 27.08954402 -24.3395917 27.07971432 -27.88238525 27.06866455 C-31.49515227 27.05844899 -35.10792584 27.0538706 -38.72070312 27.04882812 C-45.8138188 27.03809198 -52.90690674 27.02101636 -60 27 C-60 26.67 -60 26.34 -60 26 C-40.53 25.67 -21.06 25.34 -1 25 C-0.67 16.75 -0.34 8.5 0 0 Z " fill="#175FCF" transform="translate(92,260)"/>
<path d="M0 0 C168.96 0 337.92 0 512 0 C512 55.44 512 110.88 512 168 C511.67 168 511.34 168 511 168 C511 112.89 511 57.78 511 1 C472.28650584 1.06291446 472.28650584 1.06291446 433.57301331 1.1268158 C432.59449658 1.12844659 432.59449658 1.12844659 431.59621185 1.13011033 C409.64710103 1.16670856 387.6979928 1.20467371 365.74888611 1.2436676 C365.03287749 1.24493928 364.31686888 1.24621096 363.57916303 1.24752118 C348.02026563 1.27516227 332.46136862 1.30302524 316.90247202 1.33111694 C309.27295343 1.34489074 301.64343475 1.35861549 294.01391602 1.37231445 C293.25466669 1.37367854 292.49541736 1.37504262 291.71316047 1.37644804 C267.08123519 1.42067927 242.44930581 1.46166794 217.81737223 1.50098413 C192.51556666 1.54138659 167.21376876 1.58504226 141.91197599 1.63282111 C138.34242963 1.63956017 134.77288319 1.64626184 131.20333672 1.65294075 C130.50076369 1.65425648 129.79819067 1.65557221 129.07432756 1.6569278 C117.7417224 1.67805436 106.40911432 1.69572746 95.07650144 1.71212531 C83.69740854 1.72866352 72.31832794 1.74888248 60.93924744 1.77266841 C54.76813706 1.78545872 48.59703486 1.79658689 42.42591476 1.80341911 C36.78637576 1.80969798 31.14686492 1.82049764 25.50734132 1.8350333 C23.45754202 1.83949339 21.40773818 1.84223367 19.35793424 1.84316199 C16.59081365 1.84465606 13.82377629 1.85217752 11.0566721 1.8613348 C10.24429163 1.86031213 9.43191116 1.85928946 8.5949131 1.85823581 C5.00041611 1.54046153 5.00041611 1.54046153 2 3 C1.91106767 4.67520301 1.89314275 6.35420156 1.90234375 8.03173828 C1.90560669 9.12995911 1.90886963 10.22817993 1.91223145 11.35968018 C1.92473938 13.19644318 1.92473938 13.19644318 1.9375 15.0703125 C1.94388257 17.06350141 1.95024894 19.05669042 1.95609283 21.04988098 C1.96308757 23.22481133 1.97218526 25.39972525 1.98168945 27.574646 C2.0147959 35.42994441 2.02643341 43.28526299 2.03125 51.140625 C2.03179886 51.98390728 2.03234772 52.82718956 2.03291321 53.69602585 C2.04112611 77.4236963 1.76698671 101.1491278 1.5 124.875 C1.48797546 125.95113808 1.47595093 127.02727615 1.46356201 128.13602448 C1.31502473 141.42408859 1.16088542 154.71207972 1 168 C0.67 168 0.34 168 0 168 C0 112.56 0 57.12 0 0 Z " fill="#09B0F1" transform="translate(0,0)"/>
<path d="M0 0 C1.71123047 0.14888672 1.71123047 0.14888672 3.45703125 0.30078125 C6.1875 0.6875 6.1875 0.6875 7.1875 1.6875 C7.27463831 3.39522358 7.29450007 5.10648649 7.28515625 6.81640625 C7.28193359 7.85087891 7.27871094 8.88535156 7.27539062 9.95117188 C7.26701172 11.03978516 7.25863281 12.12839844 7.25 13.25 C7.24548828 14.34248047 7.24097656 15.43496094 7.23632812 16.56054688 C7.2244984 19.26955432 7.20656231 21.9785338 7.1875 24.6875 C0.5875 24.6875 -6.0125 24.6875 -12.8125 24.6875 C-12.8125 17.0975 -12.8125 9.5075 -12.8125 1.6875 C-7.44415682 -0.10194773 -5.32698413 -0.50530249 0 0 Z " fill="#F7E159" transform="translate(316.8125,487.3125)"/>
<path d="M0 0 C6.27 0 12.54 0 19 0 C19 7.92 19 15.84 19 24 C12.73 24 6.46 24 0 24 C0 16.08 0 8.16 0 0 Z " fill="#FCE552" transform="translate(194,488)"/>
<path d="M0 0 C10.23 0 20.46 0 31 0 C31 4.62 31 9.24 31 14 C20.77 14 10.54 14 0 14 C0 9.38 0 4.76 0 0 Z " fill="#575757" transform="translate(243,146)"/>
<path d="M0 0 C2.97 0 5.94 0 9 0 C8.99254257 0.61450516 8.98508514 1.22901031 8.97740173 1.86213684 C8.90816853 8.30379818 8.90266266 14.74335699 8.93286133 21.18530273 C8.93592863 23.58377362 8.92317238 25.98232226 8.89379883 28.38061523 C8.85419346 31.8450048 8.87298367 35.30511947 8.90234375 38.76953125 C8.87776596 39.82831985 8.85318817 40.88710846 8.8278656 41.97798157 C8.96980892 49.46542714 11.08288074 54.34078265 16.1559906 59.89448547 C21.45134311 63.81481064 26.84573005 63.46578173 33.22265625 63.29296875 C34.57744337 63.29489427 35.93223142 63.30167609 37.28697205 63.31306458 C40.82458013 63.32994462 44.3582913 63.28160282 47.89526367 63.21887207 C51.51543438 63.16646789 55.13539263 63.17682718 58.75585938 63.18164062 C65.83844878 63.18193874 72.91810469 63.10741186 80 63 C80.33 69.93 80.66 76.86 81 84 C82.32 84.66 83.64 85.32 85 86 C85.49474319 86.52733231 85.98948639 87.05466461 86.4992218 87.59797668 C88.41684753 89.38941794 89.41928266 89.39147134 92.01245117 89.43237305 C92.81305466 89.45216721 93.61365814 89.47196136 94.43852234 89.49235535 C95.29798965 89.49874527 96.15745697 89.50513519 97.04296875 89.51171875 C98.36836418 89.53864555 98.36836418 89.53864555 99.72053528 89.56611633 C102.5428083 89.62029996 105.36491144 89.65414061 108.1875 89.6875 C110.10093514 89.72066599 112.01434784 89.75515498 113.92773438 89.79101562 C118.61836715 89.87603099 123.30894884 89.94280362 128 90 C128 94.62 128 99.24 128 104 C120.74 104 113.48 104 106 104 C106 103.67 106 103.34 106 103 C112.93 103 119.86 103 127 103 C127 99.04 127 95.08 127 91 C125.82493896 91.0314209 124.64987793 91.0628418 123.43920898 91.09521484 C119.05798013 91.20424027 114.67686984 91.2728502 110.29467773 91.32958984 C108.40221967 91.35966736 106.50989991 91.40054133 104.61791992 91.45263672 C101.88946343 91.52585497 99.16285717 91.55954542 96.43359375 91.5859375 C95.59477158 91.61690521 94.7559494 91.64787292 93.89170837 91.67977905 C88.24164845 91.68297851 85.3866329 90.39482708 81.29725647 86.48721313 C79.05668335 83.91855393 78.87899757 82.1823446 78.90234375 78.8671875 C78.90556641 78.06152344 78.90878906 77.25585938 78.91210938 76.42578125 C78.92048828 75.58402344 78.92886719 74.74226563 78.9375 73.875 C78.94201172 73.02550781 78.94652344 72.17601562 78.95117188 71.30078125 C78.96297126 69.20049091 78.98090694 67.1002367 79 65 C77.8824659 65.00333092 77.8824659 65.00333092 76.74235535 65.00672913 C69.72369072 65.02676019 62.70503599 65.04198853 55.68635082 65.05181217 C52.07791615 65.05703236 48.46950508 65.06411436 44.86108398 65.07543945 C41.37923767 65.086299 37.89741408 65.09228336 34.41555214 65.09487724 C32.43964005 65.0976261 30.4637371 65.10543327 28.48783875 65.11329651 C27.28682022 65.11337204 26.0858017 65.11344757 24.84838867 65.11352539 C23.78915695 65.115746 22.72992523 65.11796661 21.63859558 65.12025452 C19 65 19 65 16 64 C14.46484375 62.0390625 14.46484375 62.0390625 12.9375 59.625 C12.43089844 58.83351563 11.92429687 58.04203125 11.40234375 57.2265625 C10.93957031 56.49179687 10.47679688 55.75703125 10 55 C9.34 54.01 8.68 53.02 8 52 C7.75949097 49.70307922 7.75949097 49.70307922 7.77294922 46.9777832 C7.77310028 45.95695145 7.77325134 44.93611969 7.77340698 43.88435364 C7.78889084 42.23423531 7.78889084 42.23423531 7.8046875 40.55078125 C7.8075174 39.4230278 7.81034729 38.29527435 7.81326294 37.13334656 C7.82447084 33.52629042 7.84957677 29.91948127 7.875 26.3125 C7.885029 23.86914421 7.89415499 21.42578453 7.90234375 18.98242188 C7.92441217 12.98819677 7.95789583 6.99411603 8 1 C5.69 1 3.38 1 1 1 C1.00523682 1.7520874 1.01047363 2.5041748 1.01586914 3.27905273 C1.03657227 6.66519342 1.04963877 10.05132084 1.0625 13.4375 C1.07087891 14.62150391 1.07925781 15.80550781 1.08789062 17.02539062 C1.09111328 18.15009766 1.09433594 19.27480469 1.09765625 20.43359375 C1.10289307 21.47572021 1.10812988 22.51784668 1.11352539 23.59155273 C1 26 1 26 0 27 C-1.8718094 27.09386381 -3.7471806 27.11743804 -5.62133789 27.11352539 C-6.82250748 27.11344986 -8.02367706 27.11337433 -9.26124573 27.11329651 C-10.5685112 27.10813522 -11.87577667 27.10297394 -13.22265625 27.09765625 C-14.56644132 27.09579198 -15.91022707 27.09436812 -17.25401306 27.09336853 C-20.79682277 27.08954402 -24.3395917 27.07971432 -27.88238525 27.06866455 C-31.49515227 27.05844899 -35.10792584 27.0538706 -38.72070312 27.04882812 C-45.8138188 27.03809198 -52.90690674 27.02101636 -60 27 C-60 26.67 -60 26.34 -60 26 C-40.53 25.67 -21.06 25.34 -1 25 C-0.67 16.75 -0.34 8.5 0 0 Z " fill="#1E74CF" transform="translate(92,260)"/>
<path d="M0 0 C3.3 0 6.6 0 10 0 C10.495 12.375 10.495 12.375 11 25 C30.8 25 50.6 25 71 25 C71 25.66 71 26.32 71 27 C50.87 27 30.74 27 10 27 C6.28403487 19.56806974 6.84341407 11.17726509 7 3 C5.35 3 3.7 3 2 3 C2.00745743 3.60197708 2.01491486 4.20395416 2.02259827 4.82417297 C2.09184639 11.13608592 2.09733223 17.44585329 2.06713867 23.75805664 C2.06407188 26.10802561 2.07682268 28.45807401 2.10620117 30.80786133 C2.36347667 52.8540324 2.36347667 52.8540324 -3.44140625 60.04296875 C-7.59519828 64.06748907 -9.82101506 65.11850023 -15.55126953 65.20532227 C-16.71232208 65.22526749 -17.87337463 65.24521271 -19.0696106 65.26576233 C-20.32796722 65.28247482 -21.58632385 65.29918732 -22.8828125 65.31640625 C-24.16735321 65.33718735 -25.45189392 65.35796844 -26.77536011 65.37937927 C-30.19149359 65.43459049 -33.60768745 65.48400388 -37.02392578 65.53222656 C-40.50949481 65.58244857 -43.99497609 65.63813097 -47.48046875 65.69335938 C-54.32023642 65.80092928 -61.16008334 65.90237684 -68 66 C-68.04898437 67.03640625 -68.09796875 68.0728125 -68.1484375 69.140625 C-68.22349597 70.51044208 -68.29904247 71.88023248 -68.375 73.25 C-68.4059375 73.93191406 -68.436875 74.61382812 -68.46875 75.31640625 C-68.86167517 82.06162166 -68.86167517 82.06162166 -71 85 C-72.485 85.495 -72.485 85.495 -74 86 C-74 85.34 -74 84.68 -74 84 C-73.34 84 -72.68 84 -72 84 C-72.01160156 83.32195312 -72.02320313 82.64390625 -72.03515625 81.9453125 C-72.04417969 81.01460938 -72.05320312 80.08390625 -72.0625 79.125 C-72.07410156 78.22007812 -72.08570313 77.31515625 -72.09765625 76.3828125 C-71.96849767 71.90875913 -71.44537042 67.45370416 -71 63 C-50.54 63 -30.08 63 -9 63 C-8.34 61.68 -7.68 60.36 -7 59 C-5.98699598 57.8216967 -4.96138501 56.65414776 -3.92529297 55.49609375 C0.01563832 50.30120936 -0.14172901 45.39235396 -0.1953125 39.0625 C-0.18160614 37.94182129 -0.16789978 36.82114258 -0.15377808 35.66650391 C-0.11658739 32.11059016 -0.12018603 28.55608007 -0.125 25 C-0.10686578 22.57940536 -0.08606083 20.15882915 -0.0625 17.73828125 C-0.01075044 11.82528675 0.00443744 5.91320848 0 0 Z " fill="#2373C8" transform="translate(416,260)"/>
<path d="M0 0 C1.94802773 -0.00240944 1.94802773 -0.00240944 3.93540955 -0.00486755 C7.46741139 -0.00800091 10.9952335 0.0562648 14.52627039 0.13344598 C18.22691813 0.20261148 21.92768137 0.2087028 25.62887573 0.22172546 C32.62411235 0.25580025 39.61743871 0.3459027 46.61183727 0.45656985 C54.58020754 0.57988731 62.54867322 0.64009218 70.51776147 0.69521964 C86.8982099 0.80993662 103.27674138 1.00318371 119.65576172 1.2487793 C119.65576172 1.5787793 119.65576172 1.9087793 119.65576172 2.2487793 C118.99222907 2.24748048 118.32869642 2.24618166 117.64505672 2.24484348 C101.48609303 2.21561858 85.32765812 2.22503324 69.16876125 2.27724552 C61.35432964 2.3015674 53.54028547 2.31289902 45.72583008 2.29345703 C38.9132374 2.2765408 32.10118672 2.28419434 25.28866535 2.32112688 C21.68258409 2.33982434 18.07741906 2.34637017 14.47134209 2.32347298 C10.44149437 2.29834604 6.41381416 2.3280853 2.3840332 2.36230469 C0.59838959 2.3385804 0.59838959 2.3385804 -1.22332764 2.31437683 C-6.84799589 2.40631564 -10.37213428 2.57809654 -14.45225525 6.67918396 C-14.9522853 7.29766929 -15.45231535 7.91615461 -15.96749783 8.55338192 C-17.34423828 10.2487793 -17.34423828 10.2487793 -20.34423828 12.2487793 C-20.67738304 15.38983056 -20.80982645 18.33919557 -20.82080078 21.48706055 C-20.83606308 22.47509674 -20.85132538 23.46313293 -20.86705017 24.48110962 C-20.9152636 27.84114058 -20.94210847 31.20101665 -20.96923828 34.5612793 C-20.99911806 36.94028346 -21.03032413 39.31927128 -21.06274414 41.69824219 C-21.13304407 47.08449342 -21.19350566 52.47074259 -21.24707031 57.85717773 C-21.34373418 67.53258128 -21.4639744 77.20765808 -21.58493042 86.88278389 C-21.85689853 108.67124277 -22.10601273 130.45992794 -22.34423828 152.2487793 C-22.67423828 152.2487793 -23.00423828 152.2487793 -23.34423828 152.2487793 C-23.57830071 134.18528897 -23.75440482 116.12219453 -23.86236 98.05751324 C-23.9138282 89.66884726 -23.98393848 81.28112587 -24.09863281 72.89306641 C-24.19860531 65.57815973 -24.26289015 58.26393736 -24.28512323 50.94836646 C-24.2981118 47.07779503 -24.32841939 43.2091804 -24.40153885 39.33923912 C-24.46995114 35.68849407 -24.49025265 32.04049109 -24.47531509 28.38916588 C-24.47933393 26.42641366 -24.53287858 24.46395341 -24.58843994 22.50198364 C-24.50954267 15.6543077 -23.41249763 11.37348985 -19.1072998 5.94555664 C-13.11655875 0.16339232 -8.06229539 -0.26401353 0 0 Z " fill="#B6DCEF" transform="translate(124.34423828125,158.751220703125)"/>
<path d="M0 0 C1.34888732 0.00015905 2.69778075 0.00584927 4.04663086 0.01586914 C5.10991859 0.01799156 5.10991859 0.01799156 6.19468689 0.02015686 C8.46699173 0.02577096 10.73919936 0.03832576 13.01147461 0.05102539 C14.54858257 0.05603858 16.08569206 0.0606018 17.62280273 0.06469727 C21.39823103 0.07574497 25.17358632 0.09301898 28.94897461 0.11352539 C28.94897461 0.44352539 28.94897461 0.77352539 28.94897461 1.11352539 C18.71897461 1.11352539 8.48897461 1.11352539 -2.05102539 1.11352539 C-2.05102539 5.73352539 -2.05102539 10.35352539 -2.05102539 15.11352539 C-45.28102539 15.11352539 -88.51102539 15.11352539 -133.05102539 15.11352539 C-133.05102539 14.45352539 -133.05102539 13.79352539 -133.05102539 13.11352539 C-90.48102539 13.11352539 -47.91102539 13.11352539 -4.05102539 13.11352539 C-4.05102539 9.15352539 -4.05102539 5.19352539 -4.05102539 1.11352539 C-3.05102539 0.11352539 -3.05102539 0.11352539 0 0 Z " fill="#36ACE7" transform="translate(245.051025390625,144.886474609375)"/>
<path d="M0 0 C0.99 0.495 0.99 0.495 2 1 C2.60342066 4.74120806 3 8.21680921 3 12 C45.24 12 87.48 12 131 12 C131 12.66 131 13.32 131 14 C87.77 14 44.54 14 0 14 C0 9.38 0 4.76 0 0 Z " fill="#38ACE8" transform="translate(274,146)"/>
<path d="M0 0 C1.1947142 -0.00315216 2.38942841 -0.00630432 3.62034607 -0.009552 C4.92133743 -0.00752777 6.2223288 -0.00550354 7.56274414 -0.00341797 C8.90173866 -0.00409114 10.24073307 -0.00506128 11.57972717 -0.00631714 C14.39007731 -0.00779399 17.20039573 -0.0056403 20.01074219 -0.00097656 C23.61680858 0.00471525 27.22280046 0.00144514 30.8288641 -0.00454903 C33.5954698 -0.00815966 36.36205779 -0.00701364 39.12866402 -0.00442123 C41.10627923 -0.0034275 43.08389512 -0.00647021 45.06150818 -0.009552 C46.25937454 -0.00639984 47.45724091 -0.00324768 48.69140625 0 C50.27906044 0.00119339 50.27906044 0.00119339 51.89878845 0.00241089 C54.41040039 0.12939453 54.41040039 0.12939453 56.41040039 1.12939453 C56.41040039 27.85939453 56.41040039 54.58939453 56.41040039 82.12939453 C55.42040039 82.62439453 55.42040039 82.62439453 54.41040039 83.12939453 C54.08040039 56.06939453 53.75040039 29.00939453 53.41040039 1.12939453 C34.27040039 1.12939453 15.13040039 1.12939453 -4.58959961 1.12939453 C-4.58959961 4.75939453 -4.58959961 8.38939453 -4.58959961 12.12939453 C-4.91959961 12.78939453 -5.24959961 13.44939453 -5.58959961 14.12939453 C-5.90392484 17.24208745 -6.10049835 20.35557031 -6.30834961 23.47705078 C-6.58959961 26.12939453 -6.58959961 26.12939453 -7.58959961 27.12939453 C-9.92257394 27.17032391 -12.25665186 27.17181176 -14.58959961 27.12939453 C-14.91959961 26.46939453 -15.24959961 25.80939453 -15.58959961 25.12939453 C-12.94959961 25.12939453 -10.30959961 25.12939453 -7.58959961 25.12939453 C-7.60120117 24.23478516 -7.61280273 23.34017578 -7.62475586 22.41845703 C-7.73518433 7.62104131 -7.73518433 7.62104131 -6.58959961 1.12939453 C-4.83651424 -0.62369084 -2.379866 0.00179022 0 0 Z " fill="#235A83" transform="translate(431.589599609375,201.87060546875)"/>
<path d="M0 0 C0.495 1.485 0.495 1.485 1 3 C-0.62988036 5.34333743 -2.28232718 7.4576924 -4.125 9.625 C-7.56906721 13.75858993 -10.96465451 17.87498346 -14.0625 22.27734375 C-21.95696614 33.40568759 -30.97384984 41.06127862 -42 49 C-43.99938226 50.4769448 -45.97080341 51.97897296 -47.9375 53.5 C-48.66839844 54.0465625 -49.39929688 54.593125 -50.15234375 55.15625 C-55.26249187 60.25559442 -55.51388929 65.97092083 -55.73046875 72.7734375 C-55.770616 73.6971817 -55.81076324 74.6209259 -55.85212708 75.57266235 C-55.97670637 78.50641406 -56.0823697 81.44049341 -56.1875 84.375 C-56.26893236 86.37114513 -56.35160122 88.36724023 -56.43554688 90.36328125 C-56.63802008 95.24172437 -56.8235389 100.12054954 -57 105 C-57.66 105 -58.32 105 -59 105 C-59.02929981 101.16668301 -59.04689897 97.33339529 -59.0625 93.5 C-59.07087891 92.42234375 -59.07925781 91.3446875 -59.08789062 90.234375 C-59.10576147 84.37273892 -58.83532765 78.79815664 -58 73 C-57.794325 70.5014296 -57.60586089 68.0013618 -57.4375 65.5 C-57.35371094 64.2728125 -57.26992188 63.045625 -57.18359375 61.78125 C-57.12300781 60.8634375 -57.06242187 59.945625 -57 59 C-56.34 59 -55.68 59 -55 59 C-55 58.01 -55 57.02 -55 56 C-54.34 56 -53.68 56 -53 56 C-52.74476562 55.40219727 -52.48953125 54.80439453 -52.2265625 54.18847656 C-50.86686431 51.76245456 -49.5940654 50.63651781 -47.375 48.984375 C-46.66859375 48.45585937 -45.9621875 47.92734375 -45.234375 47.3828125 C-44.49703125 46.84398437 -43.7596875 46.30515625 -43 45.75 C-41.89398438 44.91855469 -41.89398438 44.91855469 -40.765625 44.0703125 C-35.27170567 40 -35.27170567 40 -33 40 C-32.67 39.01 -32.34 38.02 -32 37 C-30.66666667 36.66666667 -29.33333333 36.33333333 -28 36 C-27.67 35.01 -27.34 34.02 -27 33 C-25.3540349 31.31288577 -23.68762851 29.6454378 -22 28 C-21.67 27.34 -21.34 26.68 -21 26 C-20.34 26 -19.68 26 -19 26 C-19 25.01 -19 24.02 -19 23 C-18.34 23 -17.68 23 -17 23 C-17 22.34 -17 21.68 -17 21 C-16.34 21 -15.68 21 -15 21 C-14.7215625 20.01 -14.7215625 20.01 -14.4375 19 C-12.73775568 15.4527075 -10.51672617 13.031381 -7.88671875 10.13671875 C-5.04346074 6.91671434 -2.52217041 3.47375851 0 0 Z " fill="#1850CB" transform="translate(92,407)"/>
<path d="M0 0 C0.66 0.33 1.32 0.66 2 1 C0.3279334 3.27432756 -1.04112335 4.79691654 -3.87145996 5.3963623 C-6.22777599 5.5592842 -8.55988142 5.60588879 -10.921875 5.609375 C-11.78186096 5.62591125 -12.64184692 5.64244751 -13.52789307 5.65948486 C-16.26866788 5.70798368 -19.0088878 5.72933956 -21.75 5.75 C-23.61070503 5.77815817 -25.47138419 5.80808539 -27.33203125 5.83984375 C-31.88797515 5.91374297 -36.44361067 5.96330595 -41 6 C-41.33 9.63 -41.66 13.26 -42 17 C-40.59105469 16.98839844 -39.18210937 16.97679687 -37.73046875 16.96484375 C-35.88281382 16.95546479 -34.03515747 16.9463647 -32.1875 16.9375 C-31.25873047 16.92912109 -30.32996094 16.92074219 -29.37304688 16.91210938 C-28.48037109 16.90888672 -27.58769531 16.90566406 -26.66796875 16.90234375 C-25.43469849 16.89448853 -25.43469849 16.89448853 -24.17651367 16.88647461 C-22 17 -22 17 -19 18 C-19 18.99 -19 19.98 -19 21 C-18.34 21.33 -17.68 21.66 -17 22 C-14.80586273 24.31632893 -14.04304769 25.58903804 -13.70703125 28.796875 C-13.75923828 30.25867188 -13.75923828 30.25867188 -13.8125 31.75 C-13.83957031 32.73484375 -13.86664063 33.7196875 -13.89453125 34.734375 C-13.92933594 35.48203125 -13.96414063 36.2296875 -14 37 C-14.66 37 -15.32 37 -16 37 C-16.01417969 36.27554688 -16.02835937 35.55109375 -16.04296875 34.8046875 C-16.09066406 33.83789062 -16.13835937 32.87109375 -16.1875 31.875 C-16.23970703 30.44800781 -16.23970703 30.44800781 -16.29296875 28.9921875 C-17.23387625 25.01022537 -18.56031866 22.23668994 -22 20 C-25.93833494 19.13131027 -29.79122317 19.11517403 -33.8125 19.125 C-34.88693359 19.104375 -35.96136719 19.08375 -37.06835938 19.0625 C-39.71301554 19.01548389 -42.3550121 18.9955509 -45 19 C-45.02685095 16.52076199 -45.04676547 14.0418116 -45.0625 11.5625 C-45.07506836 10.50192383 -45.07506836 10.50192383 -45.08789062 9.41992188 C-45.09653588 7.61306441 -45.05220011 5.80612397 -45 4 C-42.86164878 1.86164878 -38.00814883 2.78903504 -35.0390625 2.75390625 C-33.18749529 2.72096702 -31.3359329 2.68775539 -29.484375 2.65429688 C-26.55244287 2.60685699 -23.62053024 2.56244017 -20.68847656 2.52319336 C-17.86762708 2.48352665 -15.04718734 2.4319657 -12.2265625 2.37890625 C-10.90925644 2.36628502 -10.90925644 2.36628502 -9.56533813 2.35340881 C-8.74794159 2.33676682 -7.93054504 2.32012482 -7.08837891 2.30297852 C-6.01035507 2.28751732 -6.01035507 2.28751732 -4.91055298 2.27174377 C-2.67267509 2.09378861 -2.67267509 2.09378861 0 0 Z " fill="#1C68C0" transform="translate(341,346)"/>
<path d="M0 0 C7.59 0 15.18 0 23 0 C23 20.79 23 41.58 23 63 C9 62 9 62 5 59 C3.953125 56.73828125 3.953125 56.73828125 3.25 54.3125 C2.88648438 53.10013672 2.88648438 53.10013672 2.515625 51.86328125 C2.34546875 51.24839844 2.1753125 50.63351562 2 50 C2.99 50.33 3.98 50.66 5 51 C5.70211894 52.65204456 6.36971413 54.31923769 7 56 C7.66 56.33 8.32 56.66 9 57 C9.33 57.99 9.66 58.98 10 60 C13.63 60.33 17.26 60.66 21 61 C21 41.53 21 22.06 21 2 C14.07 2 7.14 2 0 2 C0 1.34 0 0.68 0 0 Z " fill="#DAD379" transform="translate(198,365)"/>
<path d="M0 0 C14.91804752 0.5932465 29.80548539 1.4283352 44.69238281 2.56469727 C46.92555925 2.73200418 49.15932092 2.89165076 51.39355469 3.04418945 C54.68052823 3.26903516 57.96507597 3.51668834 61.25 3.76953125 C62.24370605 3.83324417 63.23741211 3.89695709 64.26123047 3.96260071 C70.97308785 4.51534148 75.12132121 5.7062559 79.6796875 10.921875 C80.78645833 12.61458333 81.89322917 14.30729167 83 16 C79.63820226 14.55922954 77.40843732 12.75249979 75 10 C75 9.34 75 8.68 75 8 C71.14198641 7.11179834 67.48167861 6.82557017 63.52734375 6.71875 C62.29822266 6.68136719 61.06910156 6.64398438 59.80273438 6.60546875 C57.22200811 6.53504974 54.64127893 6.46473756 52.06054688 6.39453125 C50.83271484 6.35714844 49.60488281 6.31976563 48.33984375 6.28125 C47.21956787 6.25095703 46.09929199 6.22066406 44.94506836 6.18945312 C42.44165405 6.02841114 40.40658895 5.62082053 38 5 C36.21865691 4.86680264 34.43380637 4.77691138 32.6484375 4.71875 C31.12476563 4.66267578 31.12476563 4.66267578 29.5703125 4.60546875 C27.43230015 4.53489866 25.29427923 4.46458803 23.15625 4.39453125 C22.14304687 4.35714844 21.12984375 4.31976563 20.0859375 4.28125 C19.1582959 4.25095703 18.2306543 4.22066406 17.27490234 4.18945312 C15 4 15 4 13 3 C10.795636 2.77049681 8.58607827 2.58924067 6.375 2.4375 C5.18648438 2.35371094 3.99796875 2.26992188 2.7734375 2.18359375 C1.40058594 2.09271484 1.40058594 2.09271484 0 2 C0 1.34 0 0.68 0 0 Z " fill="#BED4F2" transform="translate(338,389)"/>
<path d="M0 0 C5.82071622 -0.02464638 11.64140234 -0.0428343 17.4621582 -0.05493164 C19.44393441 -0.05997267 21.42570689 -0.06680538 23.4074707 -0.07543945 C26.24952109 -0.08751515 29.09152247 -0.09323045 31.93359375 -0.09765625 C32.82525742 -0.10281754 33.71692108 -0.10797882 34.63560486 -0.11329651 C36.75740601 -0.11349177 38.8791078 -0.0621003 41 0 C42 1 42 1 42.09765625 4.59765625 C42.09191272 6.08597255 42.07889891 7.57426296 42.0625 9.0625 C42.041875 11.681875 42.02125 14.30125 42 17 C34.41 17 26.82 17 19 17 C18.34 18.32 17.68 19.64 17 21 C16.34 21.99 15.68 22.98 15 24 C14.34 24 13.68 24 13 24 C13 27.63 13 31.26 13 35 C12.67 35 12.34 35 12 35 C11.3112852 23.17706267 11.3112852 23.17706267 13.875 19.3125 C16.18708866 16.79640352 16.9652597 16.05023536 20.33837891 15.88647461 C21.76802979 15.89432983 21.76802979 15.89432983 23.2265625 15.90234375 C24.2578125 15.90556641 25.2890625 15.90878906 26.3515625 15.91210938 C27.97191406 15.92467773 27.97191406 15.92467773 29.625 15.9375 C31.25695312 15.94426758 31.25695312 15.94426758 32.921875 15.95117188 C35.61460662 15.9629821 38.30731009 15.98091795 41 16 C41 11.38 41 6.76 41 2 C27.8 2 14.6 2 1 2 C0.67 1.34 0.34 0.68 0 0 Z " fill="#2B66A6" transform="translate(179,348)"/>
<path d="M0 0 C7.26 0 14.52 0 22 0 C22.66 0.99 23.32 1.98 24 3 C12.615 2.505 12.615 2.505 1 2 C1.33 21.14 1.66 40.28 2 60 C7.445 59.505 7.445 59.505 13 59 C13.33 57.68 13.66 56.36 14 55 C14.66 55.33 15.32 55.66 16 56 C15.01 58.475 15.01 58.475 14 61 C9.38 61.66 4.76 62.32 0 63 C0 42.21 0 21.42 0 0 Z " fill="#EAE480" transform="translate(297,365)"/>
<path d="M0 0 C3.83475164 0.21912867 4.94164113 0.94028394 7.6875 3.75 C11.05754677 8.48628195 12.23509578 12.07315149 12.37890625 17.8671875 C12.41250244 18.99406982 12.44609863 20.12095215 12.48071289 21.28198242 C12.50770264 22.46767822 12.53469238 23.65337402 12.5625 24.875 C12.63373865 27.30603934 12.70664528 29.73703039 12.78125 32.16796875 C12.81605469 33.34020996 12.85085938 34.51245117 12.88671875 35.72021484 C13.09767376 41.82790809 13.54134014 47.90637614 14 54 C20.27 54 26.54 54 33 54 C33 54.33 33 54.66 33 55 C26.07 55 19.14 55 12 55 C10.87608688 47.13260817 10.87608688 47.13260817 10.75048828 43.99584961 C10.72020538 43.29499741 10.68992249 42.5941452 10.65872192 41.87205505 C10.62954681 41.13955032 10.6003717 40.40704559 10.5703125 39.65234375 C10.49670578 38.06182052 10.42246806 36.47132638 10.34765625 34.88085938 C10.23408822 32.40374882 10.12457083 29.92672537 10.02587891 27.44897461 C9.92799076 25.03686753 9.8129984 22.62605553 9.6953125 20.21484375 C9.67018585 19.48031479 9.6450592 18.74578583 9.61917114 17.98899841 C9.33819235 12.63087291 8.21247402 8.26630551 4.39453125 4.35546875 C3.87246094 3.97003906 3.35039062 3.58460938 2.8125 3.1875 C1.884375 2.465625 0.95625 1.74375 0 1 C0 0.67 0 0.34 0 0 Z " fill="#1749CC" transform="translate(471,457)"/>
<path d="M0 0 C0.33 0 0.66 0 1 0 C1.02886751 4.14581887 1.04675327 8.29161216 1.0625 12.4375 C1.07087891 13.62150391 1.07925781 14.80550781 1.08789062 16.02539062 C1.09111328 17.15009766 1.09433594 18.27480469 1.09765625 19.43359375 C1.10289307 20.47572021 1.10812988 21.51784668 1.11352539 22.59155273 C1 25 1 25 0 26 C-1.84118029 26.09381302 -3.68597641 26.11743954 -5.52954102 26.11352539 C-6.71068985 26.11344986 -7.89183868 26.11337433 -9.10877991 26.11329651 C-10.3941716 26.10813522 -11.67956329 26.10297394 -13.00390625 26.09765625 C-14.31205795 26.0962413 -15.62020966 26.09482635 -16.96800232 26.09336853 C-20.45162859 26.0895441 -23.93521339 26.07971446 -27.41882324 26.06866455 C-30.97126708 26.05844882 -34.52371759 26.05387056 -38.07617188 26.04882812 C-45.05079832 26.03809212 -52.02539717 26.0210166 -59 26 C-59 25.67 -59 25.34 -59 25 C-58.16154541 24.97494385 -57.32309082 24.9498877 -56.45922852 24.92407227 C-38.30173775 24.37804748 -20.14961976 23.77111089 -2 23 C-2 22.01 -2 21.02 -2 20 C-1.34 20 -0.68 20 0 20 C0 13.4 0 6.8 0 0 Z " fill="#284764" transform="translate(91,260)"/>
<path d="M0 0 C10.23 0 20.46 0 31 0 C31 4.62 31 9.24 31 14 C20.77 14 10.54 14 0 14 C0 9.38 0 4.76 0 0 Z M2 2 C2 5.63 2 9.26 2 13 C11.24 13 20.48 13 30 13 C30 9.37 30 5.74 30 2 C20.76 2 11.52 2 2 2 Z " fill="#4E6A78" transform="translate(243,146)"/>
<path d="M0 0 C1.32 0 2.64 0 4 0 C4 0.66 4 1.32 4 2 C4.71414062 2.12375 5.42828125 2.2475 6.1640625 2.375 C9.04660836 3.01027181 11.61888712 3.95005224 14.375 5 C28.13817956 9.58772652 41.90389542 7.7316027 56 6 C56 5.34 56 4.68 56 4 C57.98 4 59.96 4 62 4 C55.1884937 10.8115063 43.46961336 10.44897982 34.5 10.5 C21.38413254 10.39675584 11.21397718 8.07031119 0 1 C0 0.67 0 0.34 0 0 Z " fill="#257CD5" transform="translate(223,301)"/>
<path d="M0 0 C0 0.99 0 1.98 0 3 C-1.64453125 4.5703125 -1.64453125 4.5703125 -3.8125 6.125 C-4.52019531 6.64320313 -5.22789062 7.16140625 -5.95703125 7.6953125 C-8 9 -8 9 -11 10 C-11.680625 10.680625 -11.680625 10.680625 -12.375 11.375 C-19.17510043 18.17510043 -28.6031856 17.02722124 -37.55541992 17.0637207 C-40.70397702 17.06196936 -43.85164881 17.03595833 -47 17 C-47 16.34 -47 15.68 -47 15 C-48.32 14.67 -49.64 14.34 -51 14 C-41.76 14 -32.52 14 -23 14 C-23 13.34 -23 12.68 -23 12 C-21.02 12 -19.04 12 -17 12 C-17 11.34 -17 10.68 -17 10 C-15.865625 9.649375 -14.73125 9.29875 -13.5625 8.9375 C-8.277413 6.98986508 -4.26267435 3.60156514 0 0 Z " fill="#3D6487" transform="translate(295,281)"/>
<path d="M0 0 C1.06367294 0.00222061 2.12734589 0.00444122 3.22325134 0.00672913 C5.02500572 0.00684242 5.02500572 0.00684242 6.86315918 0.00695801 C8.17042465 0.01211929 9.47769012 0.01728058 10.8245697 0.02259827 C12.16835477 0.02446253 13.51214052 0.02588639 14.85592651 0.02688599 C18.39873622 0.0307105 21.94150515 0.0405402 25.48429871 0.05158997 C29.09706572 0.06180552 32.7098393 0.06638392 36.32261658 0.07142639 C43.41573225 0.08216254 50.50882019 0.09923816 57.60191345 0.12025452 C57.60191345 0.45025452 57.60191345 0.78025452 57.60191345 1.12025452 C38.13191345 1.12025452 18.66191345 1.12025452 -1.39808655 1.12025452 C-1.39808655 4.75025452 -1.39808655 8.38025452 -1.39808655 12.12025452 C-1.72808655 12.78025452 -2.05808655 13.44025452 -2.39808655 14.12025452 C-2.71241178 17.23294743 -2.90898529 20.34643029 -3.11683655 23.46791077 C-3.39808655 26.12025452 -3.39808655 26.12025452 -4.39808655 27.12025452 C-6.73106088 27.16118389 -9.06513879 27.16267175 -11.39808655 27.12025452 C-11.72808655 26.46025452 -12.05808655 25.80025452 -12.39808655 25.12025452 C-9.75808655 25.12025452 -7.11808655 25.12025452 -4.39808655 25.12025452 C-4.40968811 24.22564514 -4.42128967 23.33103577 -4.4332428 22.40931702 C-4.54367127 7.61190129 -4.54367127 7.61190129 -3.39808655 1.12025452 C-2.39808655 0.12025452 -2.39808655 0.12025452 0 0 Z " fill="#244C65" transform="translate(428.39808654785156,201.87974548339844)"/>
<path d="M0 0 C0.66 0.66 1.32 1.32 2 2 C0.68 2 -0.64 2 -2 2 C-2 1.34 -2 0.68 -2 0 C-3.299375 -0.185625 -3.299375 -0.185625 -4.625 -0.375 C-8 -1 -8 -1 -10.77734375 -1.99609375 C-21.08180804 -5.20609051 -33.36839524 -4.31074579 -44 -3 C-44.33 -2.67 -44.66 -2.34 -45 -2 C-47.67058851 -1.85884839 -50.32432238 -1.95752893 -53 -2 C-37.28160112 -10.48645949 -15.27781601 -8.81687045 0 0 Z " fill="#2BA1E3" transform="translate(287,185)"/>
<path d="M0 0 C2.97 0 5.94 0 9 0 C9 7.26 9 14.52 9 22 C8.67 22 8.34 22 8 22 C7.202163 15.30386804 6.87089147 8.74233419 7 2 C5.35 2 3.7 2 2 2 C1.67 18.17 1.34 34.34 1 51 C0.34 50.67 -0.32 50.34 -1 50 C-0.67 33.5 -0.34 17 0 0 Z " fill="#358BD8" transform="translate(416,261)"/>
<path d="M0 0 C1.00675781 -0.00773438 2.01351563 -0.01546875 3.05078125 -0.0234375 C8.59347516 -0.00890881 13.26622337 0.39759591 18.5 2.25 C18.5 2.91 18.5 3.57 18.5 4.25 C19.82 4.58 21.14 4.91 22.5 5.25 C21.84 5.58 21.18 5.91 20.5 6.25 C19.96375 5.96125 19.4275 5.6725 18.875 5.375 C8.08855213 0.26562996 -9.97165468 2.37921053 -20.87890625 6.05078125 C-22.7677474 6.74390383 -24.63670314 7.49087906 -26.5 8.25 C-26.5 7.59 -26.5 6.93 -26.5 6.25 C-25.51 6.25 -24.52 6.25 -23.5 6.25 C-23.5 5.59 -23.5 4.93 -23.5 4.25 C-15.40140777 0.8142336 -8.751464 -0.06723276 0 0 Z " fill="#278CCA" transform="translate(257.5,190.75)"/>
<path d="M0 0 C6.27 0 12.54 0 19 0 C19 7.92 19 15.84 19 24 C18.34 23.67 17.68 23.34 17 23 C17 16.07 17 9.14 17 2 C11.72 1.67 6.44 1.34 1 1 C1 8.59 1 16.18 1 24 C0.67 24 0.34 24 0 24 C0 16.08 0 8.16 0 0 Z " fill="#EBDA6F" transform="translate(194,488)"/>
<path d="M0 0 C1.13732426 3.40401948 0.83989957 5.77456664 0.0625 9.25 C-0.13214844 10.14203125 -0.32679688 11.0340625 -0.52734375 11.953125 C-0.68332031 12.62859375 -0.83929688 13.3040625 -1 14 C-1.66 14 -2.32 14 -3 14 C-2.91827887 17.97995428 -2.80551266 21.95846952 -2.6875 25.9375 C-2.66494141 27.05447266 -2.64238281 28.17144531 -2.61914062 29.32226562 C-2.42424951 35.36389034 -1.88485242 40.54925689 0.34960938 46.19140625 C1.18251686 48.50753937 1.23584098 50.56297654 1 53 C-4.93703263 47.06296737 -5.41011666 34.91457865 -5.4375 26.875 C-5.32538572 17.47842156 -3.64016177 8.68890788 0 0 Z " fill="#308ED5" transform="translate(196,218)"/>
<path d="M0 0 C2.88504928 2.88504928 2.46103862 5.94331419 2.6328125 9.82421875 C2.67437469 10.60384476 2.71593689 11.38347076 2.75875854 12.1867218 C2.88963797 14.68661862 3.00724244 17.18695434 3.125 19.6875 C3.21141818 21.35355843 3.29864831 23.01957497 3.38671875 24.68554688 C3.7352849 31.46383668 4.05246579 38.21126211 4 45 C3.34 45 2.68 45 2 45 C0.43255344 29.95501423 -0.290138 15.12511699 0 0 Z " fill="#CFDAF5" transform="translate(479,467)"/>
<path d="M0 0 C0.33 0.66 0.66 1.32 1 2 C1.66 2 2.32 2 3 2 C3.144375 3.134375 3.28875 4.26875 3.4375 5.4375 C3.61171478 8.80777201 3.61171478 8.80777201 5 10 C5.2433957 14.32617411 5.22856889 18.65820955 5.24023438 22.99047852 C5.24988385 25.16136818 5.28086558 27.33128821 5.3125 29.50195312 C5.3190357 30.89061939 5.32428394 32.27929242 5.328125 33.66796875 C5.34214355 35.55938599 5.34214355 35.55938599 5.35644531 37.48901367 C4.96731544 41.32194292 4.01185086 43.73456891 2 47 C1.01 47.495 1.01 47.495 0 48 C0.32484375 46.77990234 0.32484375 46.77990234 0.65625 45.53515625 C3.96226691 31.92844777 4.06290296 19.35288126 0.65625 5.7578125 C0 3 0 3 0 0 Z " fill="#C1E1F3" transform="translate(320,220)"/>
<path d="M0 0 C0.33 0 0.66 0 1 0 C1.08811914 3.33316277 1.14076197 6.66602047 1.1875 10 C1.21263672 10.93457031 1.23777344 11.86914062 1.26367188 12.83203125 C1.33690436 19.81352768 0.13497972 24.73004056 -3 31 C-3.66 31 -4.32 31 -5 31 C-5.103125 31.721875 -5.20625 32.44375 -5.3125 33.1875 C-6.05986932 36.24491993 -7.28045189 38.38329635 -9 41 C-9.66 40.67 -10.32 40.34 -11 40 C-10.40574219 39.15953125 -9.81148438 38.3190625 -9.19921875 37.453125 C-1.55096026 25.92511969 -0.03126864 13.5080515 0 0 Z " fill="#1F80D2" transform="translate(310,238)"/>
<path d="M0 0 C0.33 0 0.66 0 1 0 C1 5.94 1 11.88 1 18 C-1.0625 18.061875 -3.125 18.12375 -5.25 18.1875 C-6.99023438 18.23970703 -6.99023438 18.23970703 -8.765625 18.29296875 C-12.30543808 17.97233351 -13.57932572 17.55515619 -16 15 C-17.046875 12.73828125 -17.046875 12.73828125 -17.75 10.3125 C-17.99234375 9.50425781 -18.2346875 8.69601562 -18.484375 7.86328125 C-18.65453125 7.24839844 -18.8246875 6.63351562 -19 6 C-18.01 6.33 -17.02 6.66 -16 7 C-15.29788106 8.65204456 -14.63028587 10.31923769 -14 12 C-13.34 12.33 -12.68 12.66 -12 13 C-11.67 13.99 -11.34 14.98 -11 16 C-7.37 16.33 -3.74 16.66 0 17 C0 11.39 0 5.78 0 0 Z " fill="#F0E084" transform="translate(219,409)"/>
<path d="M0 0 C-1.77502198 2.27991712 -2.6300787 2.95047123 -5.54370117 3.34057617 C-6.53345947 3.32486572 -7.52321777 3.30915527 -8.54296875 3.29296875 C-10.15268555 3.2784668 -10.15268555 3.2784668 -11.79492188 3.26367188 C-12.91447266 3.23853516 -14.03402344 3.21339844 -15.1875 3.1875 C-16.31865234 3.17396484 -17.44980469 3.16042969 -18.61523438 3.14648438 C-21.41063317 3.11109958 -24.20507892 3.06172948 -27 3 C-23.18144874 0.91971334 -20.11160903 0.61338754 -15.75 0.375 C-14.75117798 0.31807983 -14.75117798 0.31807983 -13.73217773 0.26000977 C-9.14761053 0.01341943 -4.5891894 -0.09365693 0 0 Z " fill="#C2D6F1" transform="translate(168,390)"/>
<path d="M0 0 C0 0.99 0 1.98 0 3 C-1.64453125 4.5703125 -1.64453125 4.5703125 -3.8125 6.125 C-4.52019531 6.64320313 -5.22789062 7.16140625 -5.95703125 7.6953125 C-8 9 -8 9 -11 10 C-11.45375 10.45375 -11.9075 10.9075 -12.375 11.375 C-14.9752355 13.9752355 -17.33750824 15.8516736 -21.1015625 16.1875 C-23.06870146 16.1875 -25.0353991 16.09989496 -27 16 C-27 15.67 -27 15.34 -27 15 C-25.906875 14.731875 -24.81375 14.46375 -23.6875 14.1875 C-20.04938693 13.01590427 -19.48673358 12.49971914 -17 10 C-15.0913533 9.34184596 -13.18264918 8.68385706 -11.2734375 8.02734375 C-7.01453855 6.10278976 -3.54860126 2.99823949 0 0 Z " fill="#356A9A" transform="translate(295,281)"/>
<path d="M0 0 C2.64 0 5.28 0 8 0 C8 7.26 8 14.52 8 22 C7.67 22 7.34 22 7 22 C6.202163 15.30386804 5.87089147 8.74233419 6 2 C4.02 2 2.04 2 0 2 C0 1.34 0 0.68 0 0 Z " fill="#1784E2" transform="translate(417,261)"/>
<path d="M0 0 C1.1948962 3.58468861 0.46340423 4.72157542 -1.15625 7.99609375 C-1.4759375 8.61613281 -1.795625 9.23617188 -2.125 9.875 C-2.56972656 10.79345703 -2.56972656 10.79345703 -3.0234375 11.73046875 C-5.14084361 15.92042067 -7.52833554 18.84066521 -11 22 C-10.67 20.35 -10.34 18.7 -10 17 C-9.34 17 -8.68 17 -8 17 C-7.34 15.02 -6.68 13.04 -6 11 C-5.34 11 -4.68 11 -4 11 C-3.896875 10.484375 -3.79375 9.96875 -3.6875 9.4375 C-2.75736134 6.13973565 -1.38604488 3.13366668 0 0 Z " fill="#2986D7" transform="translate(319,266)"/>
<path d="M0 0 C0.66 0.33 1.32 0.66 2 1 C0.625 3 0.625 3 -1 5 C-1.66 5 -2.32 5 -3 5 C-3.20625 5.556875 -3.4125 6.11375 -3.625 6.6875 C-5.55000774 9.92501302 -8.03850902 11.68231141 -11 14 C-11 10.09572976 -9.78171026 9.2747714 -7.1875 6.4375 C-6.47980469 5.65246094 -5.77210938 4.86742187 -5.04296875 4.05859375 C-3 2 -3 2 0 0 Z " fill="#41657E" transform="translate(226,202)"/>
<path d="M0 0 C2.37486059 1.38533535 4.6568476 2.71704977 6.78125 4.46875 C9.49244128 6.33985384 12.11306763 7.19868436 15.25 8.1875 C16.86648437 8.70376953 16.86648437 8.70376953 18.515625 9.23046875 C19.33546875 9.48441406 20.1553125 9.73835938 21 10 C21 10.33 21 10.66 21 11 C14.72101164 11.82618268 10.32140681 8.89779579 5 6 C4.25492188 5.6596875 3.50984375 5.319375 2.7421875 4.96875 C1 4 1 4 0.25 1.875 C0.1675 1.25625 0.085 0.6375 0 0 Z " fill="#2076C8" transform="translate(223,285)"/>
<path d="M0 0 C4.09499119 2.89058202 6.68710589 6.10572333 9.47265625 10.1953125 C11.15289036 12.18065305 12.61957585 13.00687681 15 14 C11.98968256 14.93423645 11.13349732 15.04449911 8 14 C6.46484375 12.109375 6.46484375 12.109375 4.9375 9.75 C4.43089844 8.98171875 3.92429687 8.2134375 3.40234375 7.421875 C2.00425865 5.00735476 0.96827876 2.61296278 0 0 Z " fill="#1774D8" transform="translate(100,310)"/>
<path d="M0 0 C3.85955925 3.74666538 7.36619254 7.68521322 10.8125 11.8125 C11.31458984 12.40998047 11.81667969 13.00746094 12.33398438 13.62304688 C13.55806732 15.08028848 14.77932962 16.53989865 16 18 C15.34 18.66 14.68 19.32 14 20 C12.22861556 17.75043199 10.45787453 15.50036258 8.6875 13.25 C7.93823242 12.29867188 7.93823242 12.29867188 7.17382812 11.328125 C6.20683217 10.09856722 5.24175574 8.86749686 4.27880859 7.63476562 C3.24112229 6.3082388 2.19420368 4.98893767 1.14453125 3.671875 C0 2 0 2 0 0 Z " fill="#CAD9F6" transform="translate(435,424)"/>
<path d="M0 0 C0.33 0 0.66 0 1 0 C1.17015625 0.7734375 1.3403125 1.546875 1.515625 2.34375 C3.01463355 8.78629739 4.87608718 14.18305888 8 20 C8 20.66 8 21.32 8 22 C7.34 22 6.68 22 6 22 C4.23537317 18.91190305 4 17.76687864 4 14 C3.34 14 2.68 14 2 14 C-0.3992233 9.35150485 -0.19957409 5.08913926 0 0 Z " fill="#237DC9" transform="translate(205,252)"/>
<path d="M0 0 C1.32 0 2.64 0 4 0 C4 0.66 4 1.32 4 2 C4.680625 2.103125 5.36125 2.20625 6.0625 2.3125 C9.62915989 3.14725019 12.66222194 4.49472754 16 6 C16 6.66 16 7.32 16 8 C10.18738629 6.26017005 5.16830006 4.1889511 0 1 C0 0.67 0 0.34 0 0 Z " fill="#2880D7" transform="translate(223,301)"/>
<path d="M0 0 C0.99 0.33 1.98 0.66 3 1 C2.278125 1.680625 1.55625 2.36125 0.8125 3.0625 C-2.23455693 6.09214518 -4.57207954 9.46217304 -7 13 C-7.67578125 11.26171875 -7.67578125 11.26171875 -8 9 C-6.85546875 6.89453125 -6.85546875 6.89453125 -5.1875 4.8125 C-4.64480469 4.11769531 -4.10210937 3.42289062 -3.54296875 2.70703125 C-2 1 -2 1 0 0 Z " fill="#2063D1" transform="translate(101,396)"/>
<path d="M0 0 C0.33 0 0.66 0 1 0 C1.13277344 1.04800781 1.26554688 2.09601563 1.40234375 3.17578125 C1.58057235 4.55470778 1.75896641 5.93361293 1.9375 7.3125 C2.02451172 8.00279297 2.11152344 8.69308594 2.20117188 9.40429688 C2.59210135 12.40142288 3.0415004 15.12450119 4 18 C2.68 17.34 1.36 16.68 0 16 C0 10.72 0 5.44 0 0 Z " fill="#F7E374" transform="translate(192,393)"/>
<path d="M0 0 C0.99 0 1.98 0 3 0 C2.690625 1.03125 2.38125 2.0625 2.0625 3.125 C0.49040889 9.30186863 0.3384003 15.65944709 0 22 C-0.33 22 -0.66 22 -1 22 C-1.02726927 19.64575325 -1.04696719 17.29183038 -1.0625 14.9375 C-1.07990234 12.97103516 -1.07990234 12.97103516 -1.09765625 10.96484375 C-1.00452335 7.1836481 -0.61448726 3.72079293 0 0 Z " fill="#2685CB" transform="translate(205,228)"/>
<path d="M0 0 C1.13732426 3.40401948 0.83989957 5.77456664 0.0625 9.25 C-0.13214844 10.14203125 -0.32679688 11.0340625 -0.52734375 11.953125 C-0.68332031 12.62859375 -0.83929688 13.3040625 -1 14 C-1.66 14 -2.32 14 -3 14 C-3.33 14.66 -3.66 15.32 -4 16 C-3.47606294 10.13190493 -2.23891142 5.45126259 0 0 Z " fill="#359ADC" transform="translate(196,218)"/>
<path d="M0 0 C0 0.66 0 1.32 0 2 C-6.03076923 6.06153846 -6.03076923 6.06153846 -10.9375 5.75 C-11.948125 5.5025 -12.95875 5.255 -14 5 C-14 4.67 -14 4.34 -14 4 C-12.948125 3.896875 -11.89625 3.79375 -10.8125 3.6875 C-6.92375555 2.986251 -3.71238371 0 0 0 Z " fill="#BED4F1" transform="translate(186,385)"/>
<path d="M0 0 C0.99 0.33 1.98 0.66 3 1 C0.69 3.97 -1.62 6.94 -4 10 C-4.99 9.67 -5.98 9.34 -7 9 C-4.69 6.03 -2.38 3.06 0 0 Z " fill="#2179D9" transform="translate(414,312)"/>
<path d="M0 0 C4.29 0.66 8.58 1.32 13 2 C13 2.66 13 3.32 13 4 C11.58376784 4.05447047 10.16691809 4.09300508 8.75 4.125 C7.96109375 4.14820313 7.1721875 4.17140625 6.359375 4.1953125 C3.79268059 3.9828378 2.2083933 3.28654105 0 2 C0 1.34 0 0.68 0 0 Z " fill="#474325" transform="translate(249,261)"/>
<path d="M0 0 C1.32 0.33 2.64 0.66 4 1 C1.69 3.31 -0.62 5.62 -3 8 C-3.33 7.01 -3.66 6.02 -4 5 C-2.0625 2.3125 -2.0625 2.3125 0 0 Z " fill="#D6E7E9" transform="translate(110,161)"/>
<path d="M0 0 C0.99 0.33 1.98 0.66 3 1 C1.56542672 1.9834496 0.12722594 2.96160921 -1.3125 3.9375 C-2.11300781 4.48277344 -2.91351563 5.02804687 -3.73828125 5.58984375 C-6 7 -6 7 -9 8 C-8.34 6.68 -7.68 5.36 -7 4 C-5.68 4 -4.36 4 -3 4 C-3 3.34 -3 2.68 -3 2 C-2.01 2 -1.02 2 0 2 C0 1.34 0 0.68 0 0 Z " fill="#267FD5" transform="translate(295,297)"/>
<path d="M0 0 C0.66 0.33 1.32 0.66 2 1 C-1.43361902 4.63559661 -4.7973607 7.36113346 -9 10 C-7.61811547 6.78956118 -6.07578097 4.95063635 -3.375 2.75 C-2.74335938 2.22921875 -2.11171875 1.7084375 -1.4609375 1.171875 C-0.73777344 0.59179688 -0.73777344 0.59179688 0 0 Z " fill="#EFE3BD" transform="translate(323,410)"/>
<path d="M0 0 C-5.39068413 3.59378942 -8.53673535 4.45356243 -15 4 C-15 3.67 -15 3.34 -15 3 C-13.39125 2.566875 -13.39125 2.566875 -11.75 2.125 C-8.17612429 1.19210826 -8.17612429 1.19210826 -5.8125 -0.1875 C-3.50176494 -1.22334675 -2.33629107 -0.83438967 0 0 Z " fill="#1F75C7" transform="translate(283,293)"/>
<path d="M0 0 C1.65 0 3.3 0 5 0 C3.24135754 2.1793144 2.30604 2.93686419 -0.48046875 3.51171875 C-1.37378906 3.56972656 -2.26710938 3.62773437 -3.1875 3.6875 C-4.08855469 3.75324219 -4.98960937 3.81898438 -5.91796875 3.88671875 C-6.94857422 3.94279297 -6.94857422 3.94279297 -8 4 C-8 3.34 -8 2.68 -8 2 C-5.36 2 -2.72 2 0 2 C0 1.34 0 0.68 0 0 Z " fill="#40607D" transform="translate(272,293)"/>
<path d="M0 0 C-5.00932754 3.00559652 -8.32723489 3.29341888 -14 3 C-4.91666667 -1.89102564 -4.91666667 -1.89102564 0 0 Z " fill="#34A0DF" transform="translate(248,180)"/>
<path d="M0 0 C0.33 0.66 0.66 1.32 1 2 C-0.1875 5.0625 -0.1875 5.0625 -2 8 C-3.32 8.33 -4.64 8.66 -6 9 C-4.02 6.03 -2.04 3.06 0 0 Z " fill="#C9D9F1" transform="translate(73,434)"/>
<path d="M0 0 C0.66 0 1.32 0 2 0 C1.52797514 4.24822374 -0.96655518 6.19989709 -4 9 C-3.49396008 6.83125748 -3.00016187 5.00032373 -2 3 C-1.34 3 -0.68 3 0 3 C0 2.01 0 1.02 0 0 Z " fill="#1050CD" transform="translate(73,430)"/>
<path d="M0 0 C1 2 1 2 0.3125 4.4375 C-1.10829685 7.21143671 -2.39746148 8.35172561 -5 10 C-3.84414715 6.08788267 -2.64465038 3.1254959 0 0 Z " fill="#3B6C8E" transform="translate(213,216)"/>
<path d="M0 0 C2.95409701 1.37154504 5.44008376 2.98863724 8 5 C7.67 5.99 7.34 6.98 7 8 C5.83035398 6.8572081 4.66435444 5.71068285 3.5 4.5625 C2.8503125 3.92441406 2.200625 3.28632813 1.53125 2.62890625 C0 1 0 1 0 0 Z " fill="#C1E4F4" transform="translate(299,192)"/>
<path d="M0 0 C3.24299151 2.38957269 5.50902342 4.2047869 7 8 C3.64379729 6.61122646 1.92701272 5.08322035 0 2 C0 1.34 0 0.68 0 0 Z " fill="#237AD4" transform="translate(100,310)"/>
</svg>
