<svg width="40" height="40" viewBox="0 0 40 40" fill="none" xmlns="http://www.w3.org/2000/svg">
<path d="M39.6741 25.9272L34.822 23.2536C34.7103 23.1832 34.5808 23.1462 34.4488 23.1469H31.7599L29.0482 18.8509C29.056 18.7266 29.056 18.6019 29.0482 18.4776C29.0486 17.8576 28.8304 17.2572 28.432 16.7822C28.0335 16.3071 27.4803 15.9877 26.8697 15.8802L25.4453 13.7778C25.6315 12.7049 25.392 11.6017 24.7775 10.7027C24.163 9.80365 23.222 9.1798 22.1546 8.96378C22.261 8.86977 22.3429 8.75133 22.3933 8.61864C22.4438 8.48595 22.4612 8.34298 22.4441 8.20206L22.1775 5.56653C22.1471 5.33866 22.0289 5.13165 21.8483 4.98943C21.6677 4.84721 21.4388 4.78098 21.2101 4.80481L16.5484 5.27707C16.3206 5.30754 16.1135 5.42562 15.9713 5.60624C15.8291 5.78686 15.7629 6.0158 15.7867 6.24445L16.0609 8.88C16.0895 9.1087 16.2071 9.3169 16.3882 9.45948C16.5693 9.60207 16.7993 9.66755 17.0283 9.64172L19.2525 9.42081C18.7205 9.72653 18.2624 10.1458 17.9109 10.6487C17.5593 11.1516 17.323 11.7259 17.2187 12.3306C17.1618 12.7144 17.1618 13.1045 17.2187 13.4884L14.8193 15.1642L10.1119 12.4144V6.32063C10.1119 6.13477 10.0381 5.95652 9.90665 5.8251C9.77523 5.69368 9.597 5.61984 9.41114 5.61984H4.87892C4.69306 5.61984 4.51483 5.69368 4.38341 5.8251C4.25199 5.95652 4.17815 6.13477 4.17815 6.32063V28.1057L0.133438 33.5825C0.0577968 33.6868 0.0123747 33.81 0.00219207 33.9384C-0.00799061 34.0669 0.0174354 34.1957 0.0756951 34.3106C0.133955 34.4256 0.222794 34.5222 0.332421 34.59C0.442048 34.6577 0.568236 34.6939 0.6971 34.6946H13.5625C13.6919 34.6953 13.8188 34.6598 13.9291 34.5921C14.0393 34.5244 14.1284 34.4271 14.1863 34.3114C14.2441 34.1957 14.2685 34.0661 14.2565 33.9373C14.2445 33.8084 14.1967 33.6855 14.1185 33.5825L10.0815 28.1057V15.2479L13.89 17.4493C14.2307 17.6476 14.6244 17.7357 15.0171 17.7016C15.4098 17.6675 15.7824 17.5129 16.0838 17.2589L18.2013 15.7812C18.8152 16.5008 19.6557 16.9901 20.5846 17.1687C21.5135 17.3473 22.4755 17.2045 23.3125 16.7638L23.9447 17.6931C23.9087 17.813 23.8807 17.9351 23.8609 18.0587L19.1382 23.2993C18.7725 23.7056 18.5536 24.2228 18.5163 24.7682C18.479 25.3136 18.6256 25.8558 18.9326 26.3081L22.2994 31.244H20.5246C20.34 31.246 20.1638 31.3207 20.034 31.4519C19.9042 31.5831 19.8314 31.7602 19.8314 31.9448V34.0319C19.8314 34.2164 19.9042 34.3935 20.034 34.5247C20.1638 34.6559 20.34 34.7307 20.5246 34.7327H28.3779C28.5637 34.7327 28.742 34.6588 28.8734 34.5274C29.0048 34.396 29.0787 34.2177 29.0787 34.0319V31.8305C29.0792 31.688 29.0338 31.5491 28.9491 31.4344L24.8511 25.9958C24.7565 25.8581 24.6162 25.7582 24.455 25.7139L22.3223 25.0741L22.2765 25.0055L25.8338 21.0522C26.0061 21.0922 26.1824 21.1126 26.3593 21.1132L28.9339 25.2036C29.0894 25.448 29.2852 25.6643 29.5129 25.8434L34.5021 29.652L33.23 32.2418C33.1484 32.4085 33.1363 32.6008 33.1962 32.7765C33.2562 32.9521 33.3834 33.0968 33.5499 33.1788L35.4237 34.1004C35.5904 34.1821 35.7827 34.1942 35.9584 34.1342C36.134 34.0743 36.2787 33.9471 36.3607 33.7805L36.5054 33.4758L39.9255 26.8337C40.0035 26.6783 40.021 26.4995 39.9745 26.332C39.9281 26.1645 39.821 26.0202 39.6741 25.9272Z" fill="white"/>
</svg>
