<svg width="40" height="40" viewBox="0 0 40 40" fill="none" xmlns="http://www.w3.org/2000/svg">
<path d="M11.3709 24.6427V24.593V24.5371L11.638 23.3757L7.96114 19.3261L7.91769 19.2764L7.87425 19.2268C7.46762 18.7067 7.20051 18.0915 7.09834 17.4393C6.99616 16.7871 7.06227 16.1197 7.29038 15.5002L7.99222 12.9475C8.37379 11.5348 8.9419 10.1792 9.68158 8.91662H9.54495C8.40616 8.9122 7.27058 9.03723 6.16003 9.28928C5.60529 9.38921 5.06208 9.54529 4.53891 9.7551C3.48308 10.2931 2.61641 11.1402 2.05453 12.1836C1.45929 13.1483 1.00743 14.1944 0.713029 15.289L0.122945 17.438C0.0130824 17.7038 -0.0240833 17.994 0.0152087 18.2788C0.0545008 18.5637 0.168827 18.833 0.346529 19.0591L3.87437 22.9409L3.48308 24.6613C3.47774 24.6927 3.47863 24.7249 3.48573 24.7559C3.49284 24.787 3.50601 24.8163 3.52448 24.8423C3.54294 24.8683 3.56632 24.8903 3.59332 24.9072C3.62032 24.9241 3.65045 24.9355 3.68187 24.9408L7.20342 25.5619V27.1271C7.20388 27.1686 7.2143 27.2095 7.23375 27.2462C7.25319 27.2829 7.28114 27.3145 7.31525 27.3382L9.40211 28.6239C9.44012 28.6483 9.48428 28.6612 9.52941 28.6612C9.57454 28.6612 9.61878 28.6483 9.65678 28.6239L11.7436 27.3382C11.7797 27.316 11.8094 27.2849 11.8301 27.248C11.8507 27.211 11.8616 27.1694 11.8616 27.1271V26.4066C11.6546 26.1671 11.5032 25.8847 11.4184 25.5797C11.3336 25.2747 11.3173 24.9547 11.3709 24.6427ZM7.95492 21.2267C7.89215 21.3239 7.80693 21.4046 7.70639 21.4619C7.60585 21.5192 7.49298 21.5514 7.37734 21.5559H5.24696H5.12899C3.40856 21.1459 2.16017 18.8293 2.02353 18.5684C1.91851 18.3138 1.85961 18.0425 1.8496 17.7672L1.81238 16.6989C1.81166 16.66 1.81963 16.6215 1.83573 16.5861C1.85182 16.5507 1.87564 16.5194 1.9054 16.4944C1.93517 16.4694 1.97012 16.4514 2.00776 16.4416C2.04539 16.4319 2.08476 16.4306 2.12292 16.438L2.91786 16.6492C3.51557 16.8209 4.06314 17.1341 4.51411 17.5622L6.99849 20.0466C7.06125 20.112 7.13756 20.1629 7.22207 20.1957L8.01087 20.5124C8.05033 20.5272 8.08563 20.5513 8.11376 20.5826C8.14188 20.614 8.16199 20.6517 8.17236 20.6925C8.19199 20.731 8.20223 20.7736 8.20223 20.8168C8.20223 20.8599 8.19199 20.9025 8.17236 20.941L7.95492 21.2267ZM10.8679 24.6551L9.67536 25.4501C9.64429 25.4715 9.60752 25.4829 9.56982 25.4829C9.53212 25.4829 9.49527 25.4715 9.46421 25.4501L8.27168 24.6551C8.22051 24.618 8.18344 24.5646 8.16652 24.5037C8.1496 24.4428 8.15388 24.3779 8.17858 24.3197L9.37103 22.1273C9.38405 22.0856 9.41006 22.0491 9.44525 22.0232C9.48045 21.9974 9.52303 21.9834 9.56671 21.9834C9.6104 21.9834 9.6529 21.9974 9.6881 22.0232C9.72329 22.0491 9.7493 22.0856 9.76232 22.1273L10.9548 24.3197C10.9791 24.3774 10.9837 24.4415 10.968 24.5021C10.9523 24.5627 10.9171 24.6165 10.8679 24.6551Z" fill="white"/>
<path d="M12.7743 24.9533C12.7671 24.992 12.7678 25.0318 12.7761 25.0703C12.7844 25.1089 12.8004 25.1453 12.8229 25.1777C12.8454 25.21 12.8741 25.2376 12.9073 25.2588C12.9406 25.28 12.9777 25.2943 13.0165 25.3011L16.8549 25.9843L26.2893 6.60616C25.6643 6.36282 25.0175 6.1798 24.3577 6.05959C21.6215 5.44677 18.7836 5.44677 16.0475 6.05959C15.3673 6.18235 14.7015 6.37381 14.06 6.63101C12.8737 7.10304 11.8365 8.30174 11.0166 9.61225C10.2893 10.8075 9.73516 12.0998 9.37071 13.4506L8.64408 16.0902C8.51226 16.4173 8.46919 16.7734 8.51936 17.1225C8.56954 17.4715 8.71115 17.8011 8.92976 18.0777L13.2774 22.8415L12.7743 24.9533ZM10.911 17.4691C10.7812 17.1552 10.7076 16.8209 10.6936 16.4815L10.644 15.1772C10.643 15.1262 10.6537 15.0756 10.6752 15.0293C10.6967 14.9831 10.7285 14.9423 10.7682 14.9102C10.805 14.8803 10.8485 14.8596 10.8949 14.8499C10.9414 14.8402 10.9895 14.8417 11.0353 14.8543L12.0041 15.1089C12.7392 15.3204 13.4125 15.706 13.9668 16.2331L17.0226 19.2578C17.1031 19.3326 17.1954 19.3934 17.2959 19.4379L18.2648 19.823C18.3132 19.8414 18.3567 19.8705 18.3923 19.9081C18.4278 19.9458 18.4543 19.991 18.4697 20.0404C18.4864 20.0921 18.4911 20.1469 18.4835 20.2007C18.476 20.2544 18.4565 20.3058 18.4263 20.351L18.1903 20.7112C18.1127 20.8293 18.0079 20.9271 17.8847 20.9963C17.7614 21.0654 17.6235 21.104 17.4822 21.1087L14.8612 21.1522H14.7183C12.6501 20.6304 11.1098 17.792 10.9421 17.4567L10.911 17.4691Z" fill="white"/>
<path d="M39.8918 21.767L39.3017 19.618C39.0073 18.5233 38.5554 17.4773 37.9602 16.5126C37.3983 15.4692 36.5316 14.6221 35.4758 14.0841C34.9526 13.8743 34.4095 13.7182 33.8547 13.6183C32.7442 13.3662 31.6085 13.2412 30.4697 13.2456H30.3393C31.0785 14.5092 31.6486 15.8644 32.0349 17.2765L32.7367 19.8292C32.9634 20.4493 33.0282 21.1169 32.9249 21.769C32.8217 22.421 32.5539 23.036 32.1467 23.5557L32.1032 23.6116L32.0598 23.6613L28.3829 27.7109L28.65 28.8723V28.9282V28.9779C28.7035 29.2975 28.6837 29.6251 28.5923 29.936C28.5008 30.2469 28.3401 30.5331 28.1221 30.7728V31.4933C28.1232 31.5346 28.1345 31.5749 28.1551 31.6107C28.1757 31.6465 28.2049 31.6766 28.24 31.6983L30.3269 32.9901C30.3649 33.0145 30.4091 33.0274 30.4543 33.0274C30.4994 33.0274 30.5436 33.0145 30.5816 32.9901L32.6684 31.6983C32.7028 31.6763 32.7312 31.646 32.7507 31.6101C32.7702 31.5743 32.7804 31.5341 32.7803 31.4933V29.8785L36.3018 29.2574C36.3339 29.2522 36.3646 29.2405 36.392 29.2232C36.4195 29.2059 36.4432 29.1833 36.4617 29.1566C36.4803 29.13 36.4933 29.0999 36.4999 29.0681C36.5066 29.0363 36.5069 29.0035 36.5006 28.9717L36.1093 27.2575L39.6371 23.3756C39.8171 23.1535 39.9355 22.8879 39.9802 22.6055C40.0249 22.3231 39.9944 22.0339 39.8918 21.767ZM31.7803 28.9592L30.5878 29.748C30.5579 29.7722 30.5206 29.7855 30.4822 29.7855C30.4437 29.7855 30.4065 29.7722 30.3766 29.748L29.1841 28.9592C29.1344 28.9196 29.099 28.8647 29.0833 28.8031C29.0676 28.7414 29.0724 28.6763 29.0972 28.6176L30.2897 26.4314C30.3027 26.3897 30.3287 26.3532 30.3639 26.3274C30.3991 26.3015 30.4416 26.2875 30.4853 26.2875C30.529 26.2875 30.5716 26.3015 30.6067 26.3274C30.6419 26.3532 30.6679 26.3897 30.681 26.4314L31.9045 28.6363C31.922 28.6963 31.9193 28.7604 31.8968 28.8187C31.8744 28.8771 31.8335 28.9264 31.7803 28.9592ZM38.2024 22.09C38.1922 22.3606 38.1354 22.6274 38.0347 22.8788C37.8918 23.152 36.6434 25.4687 34.9292 25.8786H34.7926L32.6622 25.8414C32.5468 25.8392 32.4337 25.8086 32.3329 25.7522C32.2322 25.6959 32.1469 25.6156 32.0846 25.5184L31.8921 25.2265C31.8724 25.188 31.8622 25.1454 31.8622 25.1023C31.8622 25.0591 31.8724 25.0165 31.8921 24.978C31.9024 24.9372 31.9226 24.8995 31.9507 24.8681C31.9788 24.8368 32.0141 24.8127 32.0536 24.7979L32.8424 24.4812C32.9281 24.4509 33.005 24.3996 33.0659 24.3321L35.5503 21.8477C36.0013 21.4196 36.5488 21.1064 37.1465 20.9347L37.9415 20.7236C37.9797 20.7162 38.019 20.7174 38.0567 20.7271C38.0943 20.7369 38.1293 20.7549 38.159 20.7799C38.1888 20.8049 38.2126 20.8362 38.2287 20.8716C38.2448 20.907 38.2528 20.9455 38.2521 20.9844L38.2024 22.09Z" fill="white"/>
<path d="M30.6619 17.7548C30.2975 16.404 29.7433 15.1117 29.016 13.9164C28.2024 12.6059 27.1527 11.4321 25.9727 10.9352H25.9168L16.4824 30.3133L16.973 30.4002V32.3194C16.9711 32.3709 16.9834 32.4219 17.0086 32.4669C17.0338 32.5118 17.0709 32.5489 17.1159 32.5741L19.6748 34.1579C19.7208 34.1886 19.7748 34.2049 19.8301 34.2049C19.8854 34.2049 19.9394 34.1886 19.9854 34.1579L22.5504 32.5741C22.5934 32.5471 22.6285 32.5095 22.6525 32.4648C22.6764 32.4202 22.6884 32.3701 22.6871 32.3194V30.3754L27.0348 29.6052C27.0736 29.5985 27.1107 29.5841 27.144 29.5629C27.1772 29.5418 27.2059 29.5142 27.2284 29.4819C27.2509 29.4495 27.2669 29.413 27.2752 29.3745C27.2835 29.336 27.2842 29.2962 27.277 29.2574L26.7988 27.1457L31.1464 22.3819C31.365 22.1052 31.5066 21.7757 31.5567 21.4266C31.6069 21.0776 31.5639 20.7215 31.4321 20.3944L30.6619 17.7548ZM21.4449 29.2574L19.9792 30.2263C19.9412 30.2536 19.8955 30.2683 19.8487 30.2683C19.8019 30.2683 19.7563 30.2536 19.7183 30.2263L18.2401 29.2574C18.178 29.2088 18.1338 29.1409 18.1147 29.0644C18.0956 28.9879 18.1025 28.9072 18.1345 28.8351L19.5941 26.1457C19.6107 26.0946 19.6431 26.05 19.6866 26.0183C19.7301 25.9867 19.7825 25.9697 19.8363 25.9697C19.8901 25.9697 19.9425 25.9867 19.986 26.0183C20.0295 26.05 20.0619 26.0946 20.0785 26.1457L21.5381 28.8351C21.5715 28.9059 21.5804 28.9857 21.5635 29.0621C21.5467 29.1386 21.505 29.2072 21.4449 29.2574ZM29.3266 20.8168C29.313 21.1516 29.2416 21.4815 29.1154 21.7919C28.9415 22.1211 27.4136 24.9657 25.3206 25.4688H25.2647H25.1653L22.5443 25.4253C22.4031 25.4206 22.265 25.382 22.1418 25.3129C22.0186 25.2437 21.9138 25.1459 21.8362 25.0278L21.6002 24.6675C21.57 24.6224 21.5504 24.571 21.5429 24.5173C21.5354 24.4635 21.5401 24.4087 21.5567 24.357C21.5722 24.3076 21.5987 24.2624 21.6342 24.2247C21.6697 24.1871 21.7133 24.158 21.7617 24.1396L22.7306 23.7545C22.8325 23.7101 22.9253 23.6469 23.0039 23.5682L26.0596 20.5497C26.6122 20.0203 27.2861 19.6343 28.0223 19.4255L28.9912 19.1709C29.037 19.1583 29.0851 19.1568 29.1315 19.1665C29.178 19.1762 29.2214 19.1969 29.2583 19.2268C29.2975 19.2579 29.329 19.2976 29.3505 19.3429C29.3721 19.3881 29.383 19.4376 29.3825 19.4876L29.3266 20.8168Z" fill="white"/>
</svg>
