<?xml version="1.0" standalone="no"?>
<!DOCTYPE svg PUBLIC "-//W3C//DTD SVG 20010904//EN"
 "http://www.w3.org/TR/2001/REC-SVG-20010904/DTD/svg10.dtd">
<svg version="1.0" xmlns="http://www.w3.org/2000/svg"
 width="442.000000pt" height="442.000000pt" viewBox="0 0 442.000000 442.000000"
 preserveAspectRatio="xMidYMid meet">

<g transform="translate(0.000000,442.000000) scale(0.100000,-0.100000)"
fill="#000000" stroke="none">
<path d="M402 3028 c-16 -16 -16 -120 0 -136 21 -21 48 15 48 65 l0 43 55 0
55 0 0 -40 0 -40 -43 0 c-32 0 -49 -6 -62 -20 l-19 -21 85 3 84 3 3 57 c5 91
-3 98 -106 98 -55 0 -92 -4 -100 -12z"/>
<path d="M662 2960 c73 -115 74 -115 182 53 l18 27 -31 0 c-27 0 -36 -7 -59
-45 -15 -24 -30 -45 -34 -45 -3 0 -19 20 -35 45 -24 38 -33 45 -60 45 l-32 0
51 -80z"/>
<path d="M877 3022 c-12 -13 -17 -37 -17 -80 l0 -62 90 0 c83 0 90 1 90 20 0
18 -7 20 -60 20 -33 0 -60 4 -60 10 0 6 18 10 40 10 33 0 40 3 40 20 0 17 -7
20 -40 20 -22 0 -40 5 -40 10 0 6 27 10 60 10 53 0 60 2 60 20 0 18 -7 20 -73
20 -59 0 -77 -4 -90 -18z"/>
<path d="M1070 2960 c0 -79 0 -80 25 -80 24 0 25 3 25 60 l0 60 45 0 c33 0 45
-4 45 -15 0 -10 -10 -15 -30 -15 -23 0 -30 -5 -30 -19 0 -29 62 -71 105 -71
l37 0 -32 26 c-30 26 -31 27 -10 41 22 16 27 62 8 81 -8 8 -45 12 -100 12
l-88 0 0 -80z"/>
<path d="M1306 2983 c14 -32 30 -68 35 -80 14 -36 46 -29 68 14 l19 38 18 -38
c29 -61 55 -51 93 34 17 40 31 76 31 80 0 5 -11 9 -24 9 -19 0 -27 -9 -41 -42
l-16 -42 -19 42 c-26 57 -54 57 -79 0 l-17 -42 -17 42 c-15 36 -21 42 -47 42
l-30 0 26 -57z"/>
<path d="M1610 2988 c-19 -29 -43 -65 -53 -80 l-19 -28 31 0 c27 0 36 7 63 50
17 28 33 50 35 50 2 0 17 -22 34 -50 26 -42 35 -50 61 -50 35 0 36 -4 -22 88
-57 92 -79 96 -130 20z"/>
<path d="M1760 3020 c0 -16 7 -20 35 -20 l35 0 0 -60 0 -60 30 0 30 0 0 60 c0
60 0 60 30 60 19 0 33 7 40 20 10 19 8 20 -95 20 -98 0 -105 -1 -105 -20z"/>
<path d="M1982 3010 c-20 -31 -22 -104 -4 -122 5 -5 49 -8 98 -6 89 3 89 3 92
31 3 23 0 27 -22 27 -14 0 -26 -4 -26 -10 0 -5 -22 -10 -50 -10 l-50 0 0 40 0
40 50 0 c28 0 50 -4 50 -10 0 -5 12 -10 26 -10 22 0 25 4 22 28 -3 27 -4 27
-85 30 l-83 3 -18 -31z"/>
<path d="M2200 2960 l0 -80 30 0 c27 0 30 3 30 30 0 29 1 30 50 30 49 0 50 -1
50 -30 0 -27 3 -30 30 -30 l30 0 0 80 0 80 -30 0 c-27 0 -30 -3 -30 -30 0 -29
-1 -30 -50 -30 -49 0 -50 1 -50 30 0 27 -3 30 -30 30 l-30 0 0 -80z"/>
<path d="M251 2768 c-15 -43 -95 -858 -85 -868 15 -15 172 -18 198 -4 17 8 27
8 38 0 13 -10 106 -13 195 -7 6 1 35 62 64 136 29 74 55 133 56 131 2 -2 -1
-23 -6 -47 -24 -103 -4 -171 61 -205 52 -28 209 -25 267 4 53 26 51 26 51 7 0
-24 35 -35 114 -35 63 0 80 4 96 20 11 11 20 26 21 33 1 6 4 1 8 -13 l7 -25
185 -3 c185 -2 186 -2 197 20 8 18 11 19 11 6 1 -29 37 -39 131 -37 72 1 90 4
90 16 0 11 5 13 18 8 68 -30 217 -24 269 10 21 14 23 14 23 -4 0 -27 23 -30
212 -30 200 0 219 4 232 48 l9 32 31 -30 c58 -56 212 -65 305 -19 49 24 50 24
48 4 -2 -20 4 -21 98 -26 55 -3 105 -2 111 3 7 4 26 67 44 140 18 73 37 137
42 143 4 6 28 14 53 17 57 8 116 38 147 75 17 21 27 26 34 17 18 -18 26 -66
14 -81 -7 -7 -9 -17 -6 -22 3 -5 -20 -15 -50 -21 -122 -28 -194 -153 -153
-270 12 -33 -3 -91 -23 -91 -5 0 -19 23 -32 50 -19 41 -25 47 -29 30 -5 -18
-13 -20 -101 -20 -59 0 -96 -4 -96 -10 0 -6 7 -27 15 -47 15 -35 16 -36 63
-30 48 6 48 5 84 -43 l35 -48 -63 -110 c-35 -61 -64 -117 -64 -125 0 -32 99
-97 149 -97 15 0 36 30 85 119 l66 118 50 -10 c46 -9 50 -12 63 -51 12 -37 17
-41 50 -44 59 -5 77 11 77 66 0 47 1 48 47 71 l46 22 -54 39 c-32 24 -60 37
-69 33 -30 -12 -130 -27 -137 -19 -4 4 -1 19 8 34 11 20 26 28 58 34 132 23
207 160 153 282 -18 39 -19 51 -9 67 18 29 38 19 65 -34 49 -98 21 -244 -60
-312 -17 -14 -29 -27 -27 -29 61 -46 171 -116 181 -116 19 0 68 52 68 73 0 9
-13 31 -30 50 l-29 34 18 49 c18 45 22 50 62 57 57 12 69 22 69 62 0 18 7 38
15 45 29 24 103 145 120 196 22 67 10 120 -26 118 -13 -1 -28 5 -34 12 -5 7
-34 26 -63 42 -47 26 -59 28 -94 20 -33 -7 -44 -5 -59 8 -23 20 -24 51 -4 74
8 9 12 25 9 37 -7 27 -86 67 -116 60 -12 -3 -30 -1 -41 5 -12 6 -43 13 -71 17
l-51 6 3 42 c2 26 -4 59 -16 86 -30 67 -60 77 -232 77 l-141 0 -15 -36 -15
-37 -16 23 c-25 36 -74 50 -175 50 -71 0 -103 -5 -137 -20 -52 -24 -48 -24
-54 0 -5 20 -12 20 -218 18 l-212 -3 -11 -33 -12 -33 -19 22 c-11 12 -34 28
-52 35 -37 16 -170 19 -207 4 -17 -6 -26 -6 -26 0 0 6 -81 10 -213 10 -221 0
-237 -3 -237 -42 0 -23 -12 -23 -34 1 -32 35 -67 42 -211 39 l-139 -3 -16 -30
c-8 -16 -16 -32 -18 -34 -1 -3 -9 5 -18 17 -28 40 -66 52 -168 52 -52 0 -106
-4 -120 -10 -17 -6 -26 -6 -26 1 0 6 -40 9 -107 7 l-108 -3 -22 -45 -23 -44 0
35 c0 50 -14 59 -95 59 -81 0 -94 -8 -120 -76 l-15 -39 6 36 c3 20 1 46 -5 58
-11 19 -20 21 -107 21 -89 0 -95 -1 -103 -22z m122 -295 c-18 -142 -32 -265
-31 -273 2 -8 48 107 103 255 l100 270 43 3 43 3 -5 -33 c-13 -77 -67 -511
-64 -514 2 -2 49 119 105 269 l101 272 51 3 c28 2 51 1 51 -2 0 -3 -219 -567
-292 -748 -10 -26 -15 -28 -67 -28 l-57 0 23 203 c12 111 21 206 20 210 -1 4
-38 -87 -82 -203 l-80 -210 -58 0 -58 0 6 43 c9 65 75 697 75 718 0 16 8 19
53 19 l53 0 -33 -257z m835 237 c16 -15 22 -33 22 -61 0 -56 -137 -597 -162
-637 -31 -50 -64 -62 -173 -62 -110 0 -135 14 -135 75 0 51 139 597 161 634
33 55 72 71 175 71 77 0 93 -3 112 -20z m412 0 c28 -28 26 -79 -11 -222 -35
-140 -48 -169 -89 -200 l-30 -22 0 -142 c0 -78 -3 -149 -6 -158 -4 -11 -19
-16 -52 -16 l-45 0 6 155 6 155 -29 0 c-24 0 -31 -5 -37 -27 -3 -16 -21 -84
-38 -153 l-31 -125 -52 -3 c-29 -2 -52 -1 -52 3 0 3 43 178 96 390 l96 385
124 0 c111 0 126 -2 144 -20z m236 3 c-16 -53 -86 -346 -84 -348 2 -2 46 80
98 181 l95 184 48 0 47 0 -21 -42 c-12 -23 -57 -109 -102 -192 l-80 -151 12
-160 c7 -88 15 -177 18 -198 l6 -38 -54 3 -54 3 -12 163 c-7 90 -13 171 -15
180 -2 8 -23 -66 -48 -166 l-44 -182 -52 0 -52 0 94 378 c52 207 97 383 99
390 3 7 24 12 55 12 44 0 51 -2 46 -17z m509 5 c14 -6 28 -22 32 -36 6 -27 -1
-100 -17 -154 -11 -37 -12 -38 -60 -38 -28 0 -50 4 -50 10 0 5 7 35 15 66 8
31 12 61 9 65 -3 5 -21 9 -40 9 -40 0 -44 -6 -74 -129 l-21 -84 38 -31 c21
-17 56 -47 78 -68 l40 -36 -24 -119 c-40 -199 -62 -223 -206 -223 -72 0 -88 3
-105 20 -23 23 -27 81 -9 143 10 36 11 37 59 37 55 0 56 -2 39 -64 -12 -42 -3
-56 37 -56 39 0 55 24 79 120 l25 95 -33 30 c-18 17 -50 44 -70 61 -50 43 -54
69 -27 188 27 124 49 168 92 189 39 20 155 23 193 5z m255 2 c0 -6 -18 -82
-40 -170 -22 -88 -40 -162 -40 -165 0 -3 25 -5 55 -5 51 0 55 2 62 28 3 15 23
92 43 172 l36 145 52 3 c29 2 52 1 52 -3 0 -3 -43 -178 -96 -390 l-96 -385
-49 0 c-28 0 -49 5 -49 11 0 9 64 270 76 312 5 16 0 18 -53 15 l-58 -3 -36
-140 c-20 -77 -39 -152 -43 -167 -6 -26 -10 -28 -56 -28 -28 0 -50 2 -50 5 0
5 166 683 181 737 10 37 10 38 59 38 28 0 50 -5 50 -10z m595 -15 c15 -15 25
-36 25 -54 0 -39 -136 -584 -155 -621 -8 -15 -28 -39 -45 -54 -29 -24 -38 -26
-131 -26 -117 0 -139 12 -139 80 0 56 137 598 161 636 29 48 71 64 172 64 80
0 90 -2 112 -25z m410 0 c32 -31 31 -50 -5 -198 -49 -201 -80 -240 -209 -260
-81 -12 -67 12 -117 -189 l-26 -108 -49 0 c-27 0 -49 5 -49 10 0 9 148 609
181 733 l10 37 120 0 c114 0 121 -1 144 -25z m213 -243 c113 -80 132 -98 132
-120 0 -45 -96 -192 -125 -192 -6 0 -30 18 -54 40 -23 22 -55 43 -69 46 -66
14 -66 11 -7 116 30 54 55 106 55 116 0 27 -70 75 -87 60 -10 -8 -13 -6 -13 9
0 25 9 34 25 25 6 -4 71 -49 143 -100z m7 63 c65 -39 98 -69 94 -89 -3 -14
-19 -6 -89 45 -47 34 -89 66 -95 71 -18 18 47 -2 90 -27z m96 -14 c13 -11 22
-22 19 -24 -3 -3 -18 6 -35 19 -16 13 -25 24 -19 24 7 0 22 -9 35 -19z m-229
-73 c-11 -18 -32 -54 -45 -81 -14 -26 -28 -44 -31 -39 -6 10 27 83 55 123 28
40 46 37 21 -3z m-68 -28 c-10 -16 -20 -28 -22 -26 -4 5 28 56 35 56 2 0 -4
-13 -13 -30z m446 -74 c37 1 90 -23 90 -41 0 -53 -76 -189 -141 -255 l-30 -29
-53 26 c-42 20 -56 33 -63 57 -8 27 -4 37 25 75 41 55 82 134 82 160 0 21 41
34 50 16 3 -5 21 -10 40 -9z m153 -116 c-17 -76 -107 -210 -157 -234 -51 -24
-54 -20 -14 22 51 53 100 129 134 206 21 50 30 62 35 49 4 -10 5 -29 2 -43z
m-480 -36 c39 -26 42 -31 28 -52 -6 -10 -19 -7 -60 17 -28 17 -56 31 -61 31
-12 0 -12 3 -4 25 8 21 45 13 97 -21z m-13 -81 c0 -8 -12 -35 -27 -61 -16 -26
-28 -50 -28 -54 0 -19 -19 -17 -63 8 l-49 27 33 51 c55 87 58 89 99 65 19 -12
35 -28 35 -36z m-61 -160 c3 -2 -2 -10 -11 -19 -13 -14 -21 -12 -77 21 -53 31
-60 38 -51 55 10 18 13 17 73 -17 34 -20 64 -38 66 -40z m-49 -43 c0 -3 -6
-15 -14 -25 -12 -16 -17 -17 -44 -6 -44 19 -56 35 -42 60 l10 21 45 -22 c25
-12 45 -25 45 -28z m-21 -83 c1 -10 -228 -418 -243 -433 -16 -16 -64 -1 -105
34 l-34 28 127 220 126 221 64 -31 c36 -17 65 -34 65 -39z"/>
<path d="M1013 2628 c-11 -15 -143 -537 -143 -567 0 -26 50 -37 87 -19 27 12
31 26 100 297 39 157 70 289 67 293 -8 13 -101 9 -111 -4z"/>
<path d="M1464 2632 c-31 -3 -31 -4 -64 -130 -18 -70 -33 -131 -34 -137 -2
-16 64 -18 88 -1 18 11 29 39 50 120 14 58 26 112 26 120 0 20 -28 32 -66 28z"/>
<path d="M3021 2626 c-7 -8 -43 -140 -81 -293 -64 -257 -68 -279 -52 -291 19
-15 80 -8 98 11 12 13 144 533 144 567 0 17 -7 20 -49 20 -30 0 -53 -5 -60
-14z"/>
<path d="M3432 2608 c-33 -121 -65 -268 -59 -274 12 -13 87 16 101 39 14 22
66 220 66 251 0 13 -11 16 -50 16 -47 0 -49 -1 -58 -32z"/>
<path d="M4002 2248 c-18 -18 -15 -26 19 -44 29 -15 33 -15 48 1 15 15 14 18
-8 36 -27 22 -42 24 -59 7z"/>
<path d="M3910 2106 c0 -19 27 -46 46 -46 20 0 17 12 -10 38 -28 26 -36 28
-36 8z"/>
<path d="M3490 1790 c0 -25 21 -70 33 -70 9 0 1 65 -9 82 -10 15 -24 8 -24
-12z"/>
<path d="M3440 1687 c0 -25 25 -66 34 -56 8 7 -16 79 -26 79 -4 0 -8 -10 -8
-23z"/>
<path d="M3380 1601 c0 -19 23 -71 31 -71 12 0 11 22 -1 54 -9 24 -30 36 -30
17z"/>
<path d="M3327 1514 c-8 -8 2 -54 16 -71 17 -22 26 -4 15 30 -13 38 -22 50
-31 41z"/>
</g>
</svg>
